<?xml version="1.0" encoding="UTF-8" standalone="no"?>
<!DOCTYPE svg PUBLIC "-//W3C//DTD SVG 1.1//EN"
 "http://www.w3.org/Graphics/SVG/1.1/DTD/svg11.dtd">
<!-- Generated by graphviz version 5.0.0 (20220707.1540)
 -->
<!-- Title: dependencies Pages: 1 -->
<svg width="286pt" height="247pt"
 viewBox="0.00 0.00 286.00 246.80" xmlns="http://www.w3.org/2000/svg" xmlns:xlink="http://www.w3.org/1999/xlink">
<g id="graph0" class="graph" transform="scale(1 1) rotate(0) translate(4 242.8)">
<title>dependencies</title>
<polygon fill="white" stroke="transparent" points="-4,4 -4,-242.8 282,-242.8 282,4 -4,4"/>
<text text-anchor="middle" x="139" y="-8.2" font-family="sans-serif" font-size="14.00">dependencies</text>
<g id="clust1" class="cluster">
<title>cluster_SmsModule</title>
<polygon fill="none" stroke="black" stroke-dasharray="1,5" points="8,-32.8 8,-230.8 270,-230.8 270,-32.8 8,-32.8"/>
</g>
<g id="clust6" class="cluster">
<title>cluster_SmsModule_providers</title>
<polygon fill="none" stroke="black" points="132,-40.8 132,-92.8 262,-92.8 262,-40.8 132,-40.8"/>
</g>
<g id="clust4" class="cluster">
<title>cluster_SmsModule_exports</title>
<polygon fill="none" stroke="black" points="82,-170.8 82,-222.8 184,-222.8 184,-170.8 82,-170.8"/>
</g>
<g id="clust3" class="cluster">
<title>cluster_SmsModule_imports</title>
<polygon fill="none" stroke="black" points="16,-40.8 16,-92.8 124,-92.8 124,-40.8 16,-40.8"/>
</g>
<!-- UsersModule -->
<g id="node1" class="node">
<title>UsersModule</title>
<polygon fill="#8dd3c7" stroke="black" points="115.94,-84.8 112.94,-88.8 91.94,-88.8 88.94,-84.8 24.06,-84.8 24.06,-48.8 115.94,-48.8 115.94,-84.8"/>
<text text-anchor="middle" x="70" y="-62.6" font-family="Times,serif" font-size="14.00">UsersModule</text>
</g>
<!-- SmsModule -->
<g id="node2" class="node">
<title>SmsModule</title>
<polygon fill="#8dd3c7" stroke="black" points="174.68,-149.8 171.68,-153.8 150.68,-153.8 147.68,-149.8 91.32,-149.8 91.32,-113.8 174.68,-113.8 174.68,-149.8"/>
<text text-anchor="middle" x="133" y="-127.6" font-family="Times,serif" font-size="14.00">SmsModule</text>
</g>
<!-- UsersModule&#45;&gt;SmsModule -->
<g id="edge1" class="edge">
<title>UsersModule&#45;&gt;SmsModule</title>
<path fill="none" stroke="black" d="M103.44,-84.91C103.44,-84.91 103.44,-103.79 103.44,-103.79"/>
<polygon fill="black" stroke="black" points="99.94,-103.79 103.44,-113.79 106.94,-103.79 99.94,-103.79"/>
</g>
<!-- SmsService  -->
<g id="node3" class="node">
<title>SmsService </title>
<polygon fill="#fb8072" stroke="black" points="175.6,-214.8 90.4,-214.8 90.4,-178.8 175.6,-178.8 175.6,-214.8"/>
<text text-anchor="middle" x="133" y="-192.6" font-family="Times,serif" font-size="14.00">SmsService </text>
</g>
<!-- SmsModule&#45;&gt;SmsService  -->
<g id="edge2" class="edge">
<title>SmsModule&#45;&gt;SmsService </title>
<path fill="none" stroke="black" stroke-dasharray="5,2" d="M133,-149.91C133,-149.91 133,-168.79 133,-168.79"/>
<polygon fill="black" stroke="black" points="129.5,-168.79 133,-178.79 136.5,-168.79 129.5,-168.79"/>
</g>
<!-- SmsService -->
<g id="node4" class="node">
<title>SmsService</title>
<ellipse fill="#fdb462" stroke="black" cx="197" cy="-66.8" rx="56.77" ry="18"/>
<text text-anchor="middle" x="197" y="-62.6" font-family="Times,serif" font-size="14.00">SmsService</text>
</g>
<!-- SmsService&#45;&gt;SmsModule -->
<g id="edge3" class="edge">
<title>SmsService&#45;&gt;SmsModule</title>
<path fill="none" stroke="black" d="M157.6,-79.95C157.6,-79.95 157.6,-103.49 157.6,-103.49"/>
<polygon fill="black" stroke="black" points="154.1,-103.49 157.6,-113.49 161.1,-103.49 154.1,-103.49"/>
</g>
</g>
</svg>
