<?xml version="1.0" encoding="UTF-8" standalone="no"?>
<!DOCTYPE svg PUBLIC "-//W3C//DTD SVG 1.1//EN"
 "http://www.w3.org/Graphics/SVG/1.1/DTD/svg11.dtd">
<!-- Generated by graphviz version 5.0.0 (20220707.1540)
 -->
<!-- Title: dependencies Pages: 1 -->
<svg width="581pt" height="247pt"
 viewBox="0.00 0.00 581.00 246.80" xmlns="http://www.w3.org/2000/svg" xmlns:xlink="http://www.w3.org/1999/xlink">
<g id="graph0" class="graph" transform="scale(1 1) rotate(0) translate(4 242.8)">
<title>dependencies</title>
<polygon fill="white" stroke="transparent" points="-4,4 -4,-242.8 577,-242.8 577,4 -4,4"/>
<text text-anchor="middle" x="286.5" y="-8.2" font-family="sans-serif" font-size="14.00">dependencies</text>
<g id="clust1" class="cluster">
<title>cluster_UsersModule</title>
<polygon fill="none" stroke="black" stroke-dasharray="1,5" points="8,-32.8 8,-230.8 565,-230.8 565,-32.8 8,-32.8"/>
</g>
<g id="clust6" class="cluster">
<title>cluster_UsersModule_providers</title>
<polygon fill="none" stroke="black" points="417,-40.8 417,-92.8 557,-92.8 557,-40.8 417,-40.8"/>
</g>
<g id="clust3" class="cluster">
<title>cluster_UsersModule_imports</title>
<polygon fill="none" stroke="black" points="16,-40.8 16,-92.8 409,-92.8 409,-40.8 16,-40.8"/>
</g>
<g id="clust4" class="cluster">
<title>cluster_UsersModule_exports</title>
<polygon fill="none" stroke="black" points="236,-170.8 236,-222.8 346,-222.8 346,-170.8 236,-170.8"/>
</g>
<!-- EmailModule -->
<g id="node1" class="node">
<title>EmailModule</title>
<polygon fill="#8dd3c7" stroke="black" points="401.49,-84.8 398.49,-88.8 377.49,-88.8 374.49,-84.8 308.51,-84.8 308.51,-48.8 401.49,-48.8 401.49,-84.8"/>
<text text-anchor="middle" x="355" y="-62.6" font-family="Times,serif" font-size="14.00">EmailModule</text>
</g>
<!-- UsersModule -->
<g id="node4" class="node">
<title>UsersModule</title>
<polygon fill="#8dd3c7" stroke="black" points="336.94,-149.8 333.94,-153.8 312.94,-153.8 309.94,-149.8 245.06,-149.8 245.06,-113.8 336.94,-113.8 336.94,-149.8"/>
<text text-anchor="middle" x="291" y="-127.6" font-family="Times,serif" font-size="14.00">UsersModule</text>
</g>
<!-- EmailModule&#45;&gt;UsersModule -->
<g id="edge1" class="edge">
<title>EmailModule&#45;&gt;UsersModule</title>
<path fill="none" stroke="black" d="M322.61,-84.91C322.61,-84.91 322.61,-103.79 322.61,-103.79"/>
<polygon fill="black" stroke="black" points="319.11,-103.79 322.61,-113.79 326.11,-103.79 319.11,-103.79"/>
</g>
<!-- PrivateFilesModule -->
<g id="node2" class="node">
<title>PrivateFilesModule</title>
<polygon fill="#8dd3c7" stroke="black" points="290.44,-84.8 287.44,-88.8 266.44,-88.8 263.44,-84.8 163.56,-84.8 163.56,-48.8 290.44,-48.8 290.44,-84.8"/>
<text text-anchor="middle" x="227" y="-62.6" font-family="Times,serif" font-size="14.00">PrivateFilesModule</text>
</g>
<!-- PrivateFilesModule&#45;&gt;UsersModule -->
<g id="edge2" class="edge">
<title>PrivateFilesModule&#45;&gt;UsersModule</title>
<path fill="none" stroke="black" d="M267.75,-84.91C267.75,-84.91 267.75,-103.79 267.75,-103.79"/>
<polygon fill="black" stroke="black" points="264.25,-103.79 267.75,-113.79 271.25,-103.79 264.25,-103.79"/>
</g>
<!-- PublicFilesModule -->
<g id="node3" class="node">
<title>PublicFilesModule</title>
<polygon fill="#8dd3c7" stroke="black" points="146.06,-84.8 143.06,-88.8 122.06,-88.8 119.06,-84.8 23.94,-84.8 23.94,-48.8 146.06,-48.8 146.06,-84.8"/>
<text text-anchor="middle" x="85" y="-62.6" font-family="Times,serif" font-size="14.00">PublicFilesModule</text>
</g>
<!-- PublicFilesModule&#45;&gt;UsersModule -->
<g id="edge3" class="edge">
<title>PublicFilesModule&#45;&gt;UsersModule</title>
<path fill="none" stroke="black" d="M85,-84.91C85,-104.14 85,-131.8 85,-131.8 85,-131.8 235.28,-131.8 235.28,-131.8"/>
<polygon fill="black" stroke="black" points="235.28,-135.3 245.28,-131.8 235.28,-128.3 235.28,-135.3"/>
</g>
<!-- UsersService  -->
<g id="node5" class="node">
<title>UsersService </title>
<polygon fill="#fb8072" stroke="black" points="337.86,-214.8 244.14,-214.8 244.14,-178.8 337.86,-178.8 337.86,-214.8"/>
<text text-anchor="middle" x="291" y="-192.6" font-family="Times,serif" font-size="14.00">UsersService </text>
</g>
<!-- UsersModule&#45;&gt;UsersService  -->
<g id="edge4" class="edge">
<title>UsersModule&#45;&gt;UsersService </title>
<path fill="none" stroke="black" stroke-dasharray="5,2" d="M291,-149.91C291,-149.91 291,-168.79 291,-168.79"/>
<polygon fill="black" stroke="black" points="287.5,-168.79 291,-178.79 294.5,-168.79 287.5,-168.79"/>
</g>
<!-- UsersService -->
<g id="node6" class="node">
<title>UsersService</title>
<ellipse fill="#fdb462" stroke="black" cx="487" cy="-66.8" rx="61.97" ry="18"/>
<text text-anchor="middle" x="487" y="-62.6" font-family="Times,serif" font-size="14.00">UsersService</text>
</g>
<!-- UsersService&#45;&gt;UsersModule -->
<g id="edge5" class="edge">
<title>UsersService&#45;&gt;UsersModule</title>
<path fill="none" stroke="black" d="M487,-84.91C487,-104.14 487,-131.8 487,-131.8 487,-131.8 346.95,-131.8 346.95,-131.8"/>
<polygon fill="black" stroke="black" points="346.95,-128.3 336.95,-131.8 346.95,-135.3 346.95,-128.3"/>
</g>
</g>
</svg>
