<?xml version="1.0" encoding="UTF-8" standalone="no"?>
<!DOCTYPE svg PUBLIC "-//W3C//DTD SVG 1.1//EN"
 "http://www.w3.org/Graphics/SVG/1.1/DTD/svg11.dtd">
<!-- Generated by graphviz version 5.0.0 (20220707.1540)
 -->
<!-- Title: dependencies Pages: 1 -->
<svg width="1220pt" height="247pt"
 viewBox="0.00 0.00 1220.00 246.80" xmlns="http://www.w3.org/2000/svg" xmlns:xlink="http://www.w3.org/1999/xlink">
<g id="graph0" class="graph" transform="scale(1 1) rotate(0) translate(4 242.8)">
<title>dependencies</title>
<polygon fill="white" stroke="transparent" points="-4,4 -4,-242.8 1216,-242.8 1216,4 -4,4"/>
<text text-anchor="middle" x="606" y="-8.2" font-family="sans-serif" font-size="14.00">dependencies</text>
<g id="clust1" class="cluster">
<title>cluster_AuthModule</title>
<polygon fill="none" stroke="black" stroke-dasharray="1,5" points="8,-32.8 8,-230.8 1204,-230.8 1204,-32.8 8,-32.8"/>
</g>
<g id="clust3" class="cluster">
<title>cluster_AuthModule_imports</title>
<polygon fill="none" stroke="black" points="845,-40.8 845,-92.8 1196,-92.8 1196,-40.8 845,-40.8"/>
</g>
<g id="clust4" class="cluster">
<title>cluster_AuthModule_exports</title>
<polygon fill="none" stroke="black" points="553,-170.8 553,-222.8 659,-222.8 659,-170.8 553,-170.8"/>
</g>
<g id="clust6" class="cluster">
<title>cluster_AuthModule_providers</title>
<polygon fill="none" stroke="black" points="16,-40.8 16,-92.8 837,-92.8 837,-40.8 16,-40.8"/>
</g>
<!-- EmailConfirmationModule -->
<g id="node1" class="node">
<title>EmailConfirmationModule</title>
<polygon fill="#8dd3c7" stroke="black" points="1188.42,-84.8 1185.42,-88.8 1164.42,-88.8 1161.42,-84.8 1019.58,-84.8 1019.58,-48.8 1188.42,-48.8 1188.42,-84.8"/>
<text text-anchor="middle" x="1104" y="-62.6" font-family="Times,serif" font-size="14.00">EmailConfirmationModule</text>
</g>
<!-- AuthModule -->
<g id="node3" class="node">
<title>AuthModule</title>
<polygon fill="#8dd3c7" stroke="black" points="649.55,-149.8 646.55,-153.8 625.55,-153.8 622.55,-149.8 562.45,-149.8 562.45,-113.8 649.55,-113.8 649.55,-149.8"/>
<text text-anchor="middle" x="606" y="-127.6" font-family="Times,serif" font-size="14.00">AuthModule</text>
</g>
<!-- EmailConfirmationModule&#45;&gt;AuthModule -->
<g id="edge1" class="edge">
<title>EmailConfirmationModule&#45;&gt;AuthModule</title>
<path fill="none" stroke="black" d="M1104,-85.09C1104,-107.01 1104,-140.8 1104,-140.8 1104,-140.8 659.76,-140.8 659.76,-140.8"/>
<polygon fill="black" stroke="black" points="659.76,-137.3 649.76,-140.8 659.76,-144.3 659.76,-137.3"/>
</g>
<!-- TwoFactorAuthModule -->
<g id="node2" class="node">
<title>TwoFactorAuthModule</title>
<polygon fill="#8dd3c7" stroke="black" points="1001.48,-84.8 998.48,-88.8 977.48,-88.8 974.48,-84.8 852.52,-84.8 852.52,-48.8 1001.48,-48.8 1001.48,-84.8"/>
<text text-anchor="middle" x="927" y="-62.6" font-family="Times,serif" font-size="14.00">TwoFactorAuthModule</text>
</g>
<!-- TwoFactorAuthModule&#45;&gt;AuthModule -->
<g id="edge2" class="edge">
<title>TwoFactorAuthModule&#45;&gt;AuthModule</title>
<path fill="none" stroke="black" d="M927,-84.91C927,-104.14 927,-131.8 927,-131.8 927,-131.8 659.63,-131.8 659.63,-131.8"/>
<polygon fill="black" stroke="black" points="659.63,-128.3 649.63,-131.8 659.63,-135.3 659.63,-128.3"/>
</g>
<!-- AuthService  -->
<g id="node4" class="node">
<title>AuthService </title>
<polygon fill="#fb8072" stroke="black" points="650.98,-214.8 561.02,-214.8 561.02,-178.8 650.98,-178.8 650.98,-214.8"/>
<text text-anchor="middle" x="606" y="-192.6" font-family="Times,serif" font-size="14.00">AuthService </text>
</g>
<!-- AuthModule&#45;&gt;AuthService  -->
<g id="edge3" class="edge">
<title>AuthModule&#45;&gt;AuthService </title>
<path fill="none" stroke="black" stroke-dasharray="5,2" d="M606,-149.91C606,-149.91 606,-168.79 606,-168.79"/>
<polygon fill="black" stroke="black" points="602.5,-168.79 606,-178.79 609.5,-168.79 602.5,-168.79"/>
</g>
<!-- AuthService -->
<g id="node5" class="node">
<title>AuthService</title>
<ellipse fill="#fdb462" stroke="black" cx="770" cy="-66.8" rx="59.11" ry="18"/>
<text text-anchor="middle" x="770" y="-62.6" font-family="Times,serif" font-size="14.00">AuthService</text>
</g>
<!-- AuthService&#45;&gt;AuthModule -->
<g id="edge4" class="edge">
<title>AuthService&#45;&gt;AuthModule</title>
<path fill="none" stroke="black" d="M770,-84.83C770,-101.2 770,-122.8 770,-122.8 770,-122.8 659.95,-122.8 659.95,-122.8"/>
<polygon fill="black" stroke="black" points="659.95,-119.3 649.95,-122.8 659.95,-126.3 659.95,-119.3"/>
</g>
<!-- JwtRefreshStrategy -->
<g id="node6" class="node">
<title>JwtRefreshStrategy</title>
<ellipse fill="#fdb462" stroke="black" cx="606" cy="-66.8" rx="86.83" ry="18"/>
<text text-anchor="middle" x="606" y="-62.6" font-family="Times,serif" font-size="14.00">JwtRefreshStrategy</text>
</g>
<!-- JwtRefreshStrategy&#45;&gt;AuthModule -->
<g id="edge5" class="edge">
<title>JwtRefreshStrategy&#45;&gt;AuthModule</title>
<path fill="none" stroke="black" d="M606,-84.91C606,-84.91 606,-103.79 606,-103.79"/>
<polygon fill="black" stroke="black" points="602.5,-103.79 606,-113.79 609.5,-103.79 602.5,-103.79"/>
</g>
<!-- JwtStrategy -->
<g id="node7" class="node">
<title>JwtStrategy</title>
<ellipse fill="#fdb462" stroke="black" cx="445" cy="-66.8" rx="56.77" ry="18"/>
<text text-anchor="middle" x="445" y="-62.6" font-family="Times,serif" font-size="14.00">JwtStrategy</text>
</g>
<!-- JwtStrategy&#45;&gt;AuthModule -->
<g id="edge6" class="edge">
<title>JwtStrategy&#45;&gt;AuthModule</title>
<path fill="none" stroke="black" d="M445,-84.83C445,-101.2 445,-122.8 445,-122.8 445,-122.8 552.43,-122.8 552.43,-122.8"/>
<polygon fill="black" stroke="black" points="552.43,-126.3 562.43,-122.8 552.43,-119.3 552.43,-126.3"/>
</g>
<!-- JwtTwoFactorStrategy -->
<g id="node8" class="node">
<title>JwtTwoFactorStrategy</title>
<ellipse fill="#fdb462" stroke="black" cx="271" cy="-66.8" rx="99.01" ry="18"/>
<text text-anchor="middle" x="271" y="-62.6" font-family="Times,serif" font-size="14.00">JwtTwoFactorStrategy</text>
</g>
<!-- JwtTwoFactorStrategy&#45;&gt;AuthModule -->
<g id="edge7" class="edge">
<title>JwtTwoFactorStrategy&#45;&gt;AuthModule</title>
<path fill="none" stroke="black" d="M271,-84.91C271,-104.14 271,-131.8 271,-131.8 271,-131.8 552.2,-131.8 552.2,-131.8"/>
<polygon fill="black" stroke="black" points="552.2,-135.3 562.2,-131.8 552.2,-128.3 552.2,-135.3"/>
</g>
<!-- LocalStrategy -->
<g id="node9" class="node">
<title>LocalStrategy</title>
<ellipse fill="#fdb462" stroke="black" cx="89" cy="-66.8" rx="65.4" ry="18"/>
<text text-anchor="middle" x="89" y="-62.6" font-family="Times,serif" font-size="14.00">LocalStrategy</text>
</g>
<!-- LocalStrategy&#45;&gt;AuthModule -->
<g id="edge8" class="edge">
<title>LocalStrategy&#45;&gt;AuthModule</title>
<path fill="none" stroke="black" d="M89,-85.09C89,-107.01 89,-140.8 89,-140.8 89,-140.8 552.37,-140.8 552.37,-140.8"/>
<polygon fill="black" stroke="black" points="552.37,-144.3 562.37,-140.8 552.37,-137.3 552.37,-144.3"/>
</g>
</g>
</svg>
