<?xml version="1.0" encoding="UTF-8" standalone="no"?>
<!DOCTYPE svg PUBLIC "-//W3C//DTD SVG 1.1//EN"
 "http://www.w3.org/Graphics/SVG/1.1/DTD/svg11.dtd">
<!-- Generated by graphviz version 5.0.0 (20220707.1540)
 -->
<!-- Title: dependencies Pages: 1 -->
<svg width="386pt" height="174pt"
 viewBox="0.00 0.00 386.00 173.80" xmlns="http://www.w3.org/2000/svg" xmlns:xlink="http://www.w3.org/1999/xlink">
<g id="graph0" class="graph" transform="scale(1 1) rotate(0) translate(4 169.8)">
<title>dependencies</title>
<polygon fill="white" stroke="transparent" points="-4,4 -4,-169.8 382,-169.8 382,4 -4,4"/>
<text text-anchor="middle" x="189" y="-8.2" font-family="sans-serif" font-size="14.00">dependencies</text>
<g id="clust1" class="cluster">
<title>cluster_EmailSchedulingModule</title>
<polygon fill="none" stroke="black" stroke-dasharray="1,5" points="8,-32.8 8,-157.8 370,-157.8 370,-32.8 8,-32.8"/>
</g>
<g id="clust6" class="cluster">
<title>cluster_EmailSchedulingModule_providers</title>
<polygon fill="none" stroke="black" points="132,-40.8 132,-92.8 362,-92.8 362,-40.8 132,-40.8"/>
</g>
<g id="clust3" class="cluster">
<title>cluster_EmailSchedulingModule_imports</title>
<polygon fill="none" stroke="black" points="16,-40.8 16,-92.8 124,-92.8 124,-40.8 16,-40.8"/>
</g>
<!-- EmailModule -->
<g id="node1" class="node">
<title>EmailModule</title>
<polygon fill="#8dd3c7" stroke="black" points="116.49,-84.8 113.49,-88.8 92.49,-88.8 89.49,-84.8 23.51,-84.8 23.51,-48.8 116.49,-48.8 116.49,-84.8"/>
<text text-anchor="middle" x="70" y="-62.6" font-family="Times,serif" font-size="14.00">EmailModule</text>
</g>
<!-- EmailSchedulingModule -->
<g id="node2" class="node">
<title>EmailSchedulingModule</title>
<polygon fill="#8dd3c7" stroke="black" points="247.98,-149.8 244.98,-153.8 223.98,-153.8 220.98,-149.8 92.02,-149.8 92.02,-113.8 247.98,-113.8 247.98,-149.8"/>
<text text-anchor="middle" x="170" y="-127.6" font-family="Times,serif" font-size="14.00">EmailSchedulingModule</text>
</g>
<!-- EmailModule&#45;&gt;EmailSchedulingModule -->
<g id="edge1" class="edge">
<title>EmailModule&#45;&gt;EmailSchedulingModule</title>
<path fill="none" stroke="black" d="M104.25,-84.91C104.25,-84.91 104.25,-103.79 104.25,-103.79"/>
<polygon fill="black" stroke="black" points="100.75,-103.79 104.25,-113.79 107.75,-103.79 100.75,-103.79"/>
</g>
<!-- EmailSchedulingService -->
<g id="node3" class="node">
<title>EmailSchedulingService</title>
<ellipse fill="#fdb462" stroke="black" cx="247" cy="-66.8" rx="106.51" ry="18"/>
<text text-anchor="middle" x="247" y="-62.6" font-family="Times,serif" font-size="14.00">EmailSchedulingService</text>
</g>
<!-- EmailSchedulingService&#45;&gt;EmailSchedulingModule -->
<g id="edge2" class="edge">
<title>EmailSchedulingService&#45;&gt;EmailSchedulingModule</title>
<path fill="none" stroke="black" d="M194.24,-82.53C194.24,-82.53 194.24,-103.45 194.24,-103.45"/>
<polygon fill="black" stroke="black" points="190.74,-103.45 194.24,-113.45 197.74,-103.45 190.74,-103.45"/>
</g>
</g>
</svg>
