<?xml version="1.0" encoding="UTF-8" standalone="no"?>
<!DOCTYPE svg PUBLIC "-//W3C//DTD SVG 1.1//EN"
 "http://www.w3.org/Graphics/SVG/1.1/DTD/svg11.dtd">
<!-- Generated by graphviz version 5.0.0 (20220707.1540)
 -->
<!-- Title: dependencies Pages: 1 -->
<svg width="2115pt" height="174pt"
 viewBox="0.00 0.00 2115.00 173.80" xmlns="http://www.w3.org/2000/svg" xmlns:xlink="http://www.w3.org/1999/xlink">
<g id="graph0" class="graph" transform="scale(1 1) rotate(0) translate(4 169.8)">
<title>dependencies</title>
<polygon fill="white" stroke="transparent" points="-4,4 -4,-169.8 2111,-169.8 2111,4 -4,4"/>
<text text-anchor="middle" x="1053.5" y="-8.2" font-family="sans-serif" font-size="14.00">dependencies</text>
<g id="clust1" class="cluster">
<title>cluster_AppModule</title>
<polygon fill="none" stroke="black" stroke-dasharray="1,5" points="8,-32.8 8,-157.8 2099,-157.8 2099,-32.8 8,-32.8"/>
</g>
<g id="clust3" class="cluster">
<title>cluster_AppModule_imports</title>
<polygon fill="none" stroke="black" points="16,-40.8 16,-92.8 2091,-92.8 2091,-40.8 16,-40.8"/>
</g>
<!-- AuthModule -->
<g id="node1" class="node">
<title>AuthModule</title>
<polygon fill="#8dd3c7" stroke="black" points="2082.55,-84.8 2079.55,-88.8 2058.55,-88.8 2055.55,-84.8 1995.45,-84.8 1995.45,-48.8 2082.55,-48.8 2082.55,-84.8"/>
<text text-anchor="middle" x="2039" y="-62.6" font-family="Times,serif" font-size="14.00">AuthModule</text>
</g>
<!-- AppModule -->
<g id="node17" class="node">
<title>AppModule</title>
<polygon fill="#8dd3c7" stroke="black" points="1058.66,-149.8 1055.66,-153.8 1034.66,-153.8 1031.66,-149.8 975.34,-149.8 975.34,-113.8 1058.66,-113.8 1058.66,-149.8"/>
<text text-anchor="middle" x="1017" y="-127.6" font-family="Times,serif" font-size="14.00">AppModule</text>
</g>
<!-- AuthModule&#45;&gt;AppModule -->
<g id="edge1" class="edge">
<title>AuthModule&#45;&gt;AppModule</title>
<path fill="none" stroke="black" d="M2039,-85.12C2039,-108.46 2039,-145.8 2039,-145.8 2039,-145.8 1068.97,-145.8 1068.97,-145.8"/>
<polygon fill="black" stroke="black" points="1068.97,-142.3 1058.97,-145.8 1068.97,-149.3 1068.97,-142.3"/>
</g>
<!-- CategoriesModule -->
<g id="node2" class="node">
<title>CategoriesModule</title>
<polygon fill="#8dd3c7" stroke="black" points="1977.92,-84.8 1974.92,-88.8 1953.92,-88.8 1950.92,-84.8 1858.08,-84.8 1858.08,-48.8 1977.92,-48.8 1977.92,-84.8"/>
<text text-anchor="middle" x="1918" y="-62.6" font-family="Times,serif" font-size="14.00">CategoriesModule</text>
</g>
<!-- CategoriesModule&#45;&gt;AppModule -->
<g id="edge2" class="edge">
<title>CategoriesModule&#45;&gt;AppModule</title>
<path fill="none" stroke="black" d="M1918,-85.09C1918,-107.01 1918,-140.8 1918,-140.8 1918,-140.8 1068.95,-140.8 1068.95,-140.8"/>
<polygon fill="black" stroke="black" points="1068.95,-137.3 1058.95,-140.8 1068.95,-144.3 1068.95,-137.3"/>
</g>
<!-- ChatModule -->
<g id="node3" class="node">
<title>ChatModule</title>
<polygon fill="#8dd3c7" stroke="black" points="1839.99,-84.8 1836.99,-88.8 1815.99,-88.8 1812.99,-84.8 1754.01,-84.8 1754.01,-48.8 1839.99,-48.8 1839.99,-84.8"/>
<text text-anchor="middle" x="1797" y="-62.6" font-family="Times,serif" font-size="14.00">ChatModule</text>
</g>
<!-- ChatModule&#45;&gt;AppModule -->
<g id="edge3" class="edge">
<title>ChatModule&#45;&gt;AppModule</title>
<path fill="none" stroke="black" d="M1797,-84.83C1797,-105.57 1797,-136.8 1797,-136.8 1797,-136.8 1068.94,-136.8 1068.94,-136.8"/>
<polygon fill="black" stroke="black" points="1068.94,-133.3 1058.94,-136.8 1068.94,-140.3 1068.94,-133.3"/>
</g>
<!-- CommentsModule -->
<g id="node4" class="node">
<title>CommentsModule</title>
<polygon fill="#8dd3c7" stroke="black" points="1736.22,-84.8 1733.22,-88.8 1712.22,-88.8 1709.22,-84.8 1615.78,-84.8 1615.78,-48.8 1736.22,-48.8 1736.22,-84.8"/>
<text text-anchor="middle" x="1676" y="-62.6" font-family="Times,serif" font-size="14.00">CommentsModule</text>
</g>
<!-- CommentsModule&#45;&gt;AppModule -->
<g id="edge4" class="edge">
<title>CommentsModule&#45;&gt;AppModule</title>
<path fill="none" stroke="black" d="M1676,-84.91C1676,-104.14 1676,-131.8 1676,-131.8 1676,-131.8 1068.72,-131.8 1068.72,-131.8"/>
<polygon fill="black" stroke="black" points="1068.72,-128.3 1058.72,-131.8 1068.72,-135.3 1068.72,-128.3"/>
</g>
<!-- DatabaseModule -->
<g id="node5" class="node">
<title>DatabaseModule</title>
<polygon fill="#8dd3c7" stroke="black" points="1597.36,-84.8 1594.36,-88.8 1573.36,-88.8 1570.36,-84.8 1486.64,-84.8 1486.64,-48.8 1597.36,-48.8 1597.36,-84.8"/>
<text text-anchor="middle" x="1542" y="-62.6" font-family="Times,serif" font-size="14.00">DatabaseModule</text>
</g>
<!-- DatabaseModule&#45;&gt;AppModule -->
<g id="edge5" class="edge">
<title>DatabaseModule&#45;&gt;AppModule</title>
<path fill="none" stroke="black" d="M1542,-85.1C1542,-103.07 1542,-127.8 1542,-127.8 1542,-127.8 1069.08,-127.8 1069.08,-127.8"/>
<polygon fill="black" stroke="black" points="1069.08,-124.3 1059.08,-127.8 1069.08,-131.3 1069.08,-124.3"/>
</g>
<!-- EmailConfirmationModule -->
<g id="node6" class="node">
<title>EmailConfirmationModule</title>
<polygon fill="#8dd3c7" stroke="black" points="1468.42,-84.8 1465.42,-88.8 1444.42,-88.8 1441.42,-84.8 1299.58,-84.8 1299.58,-48.8 1468.42,-48.8 1468.42,-84.8"/>
<text text-anchor="middle" x="1384" y="-62.6" font-family="Times,serif" font-size="14.00">EmailConfirmationModule</text>
</g>
<!-- EmailConfirmationModule&#45;&gt;AppModule -->
<g id="edge6" class="edge">
<title>EmailConfirmationModule&#45;&gt;AppModule</title>
<path fill="none" stroke="black" d="M1384,-84.83C1384,-101.2 1384,-122.8 1384,-122.8 1384,-122.8 1068.74,-122.8 1068.74,-122.8"/>
<polygon fill="black" stroke="black" points="1068.74,-119.3 1058.74,-122.8 1068.74,-126.3 1068.74,-119.3"/>
</g>
<!-- EmailModule -->
<g id="node7" class="node">
<title>EmailModule</title>
<polygon fill="#8dd3c7" stroke="black" points="1281.49,-84.8 1278.49,-88.8 1257.49,-88.8 1254.49,-84.8 1188.51,-84.8 1188.51,-48.8 1281.49,-48.8 1281.49,-84.8"/>
<text text-anchor="middle" x="1235" y="-62.6" font-family="Times,serif" font-size="14.00">EmailModule</text>
</g>
<!-- EmailModule&#45;&gt;AppModule -->
<g id="edge7" class="edge">
<title>EmailModule&#45;&gt;AppModule</title>
<path fill="none" stroke="black" d="M1235,-84.99C1235,-99.98 1235,-118.8 1235,-118.8 1235,-118.8 1068.77,-118.8 1068.77,-118.8"/>
<polygon fill="black" stroke="black" points="1068.77,-115.3 1058.77,-118.8 1068.77,-122.3 1068.77,-115.3"/>
</g>
<!-- EmailSchedulingModule -->
<g id="node8" class="node">
<title>EmailSchedulingModule</title>
<polygon fill="#8dd3c7" stroke="black" points="1170.98,-84.8 1167.98,-88.8 1146.98,-88.8 1143.98,-84.8 1015.02,-84.8 1015.02,-48.8 1170.98,-48.8 1170.98,-84.8"/>
<text text-anchor="middle" x="1093" y="-62.6" font-family="Times,serif" font-size="14.00">EmailSchedulingModule</text>
</g>
<!-- EmailSchedulingModule&#45;&gt;AppModule -->
<g id="edge8" class="edge">
<title>EmailSchedulingModule&#45;&gt;AppModule</title>
<path fill="none" stroke="black" d="M1036.92,-84.91C1036.92,-84.91 1036.92,-103.79 1036.92,-103.79"/>
<polygon fill="black" stroke="black" points="1033.42,-103.79 1036.92,-113.79 1040.42,-103.79 1033.42,-103.79"/>
</g>
<!-- OptimizeModule -->
<g id="node9" class="node">
<title>OptimizeModule</title>
<polygon fill="#8dd3c7" stroke="black" points="996.65,-84.8 993.65,-88.8 972.65,-88.8 969.65,-84.8 885.35,-84.8 885.35,-48.8 996.65,-48.8 996.65,-84.8"/>
<text text-anchor="middle" x="941" y="-62.6" font-family="Times,serif" font-size="14.00">OptimizeModule</text>
</g>
<!-- OptimizeModule&#45;&gt;AppModule -->
<g id="edge9" class="edge">
<title>OptimizeModule&#45;&gt;AppModule</title>
<path fill="none" stroke="black" d="M986,-84.91C986,-84.91 986,-103.79 986,-103.79"/>
<polygon fill="black" stroke="black" points="982.5,-103.79 986,-113.79 989.5,-103.79 982.5,-103.79"/>
</g>
<!-- PostsModule -->
<g id="node10" class="node">
<title>PostsModule</title>
<polygon fill="#8dd3c7" stroke="black" points="867.62,-84.8 864.62,-88.8 843.62,-88.8 840.62,-84.8 778.38,-84.8 778.38,-48.8 867.62,-48.8 867.62,-84.8"/>
<text text-anchor="middle" x="823" y="-62.6" font-family="Times,serif" font-size="14.00">PostsModule</text>
</g>
<!-- PostsModule&#45;&gt;AppModule -->
<g id="edge10" class="edge">
<title>PostsModule&#45;&gt;AppModule</title>
<path fill="none" stroke="black" d="M823,-84.99C823,-99.98 823,-118.8 823,-118.8 823,-118.8 964.9,-118.8 964.9,-118.8"/>
<polygon fill="black" stroke="black" points="964.9,-122.3 974.9,-118.8 964.9,-115.3 964.9,-122.3"/>
</g>
<!-- PrivateFilesModule -->
<g id="node11" class="node">
<title>PrivateFilesModule</title>
<polygon fill="#8dd3c7" stroke="black" points="760.44,-84.8 757.44,-88.8 736.44,-88.8 733.44,-84.8 633.56,-84.8 633.56,-48.8 760.44,-48.8 760.44,-84.8"/>
<text text-anchor="middle" x="697" y="-62.6" font-family="Times,serif" font-size="14.00">PrivateFilesModule</text>
</g>
<!-- PrivateFilesModule&#45;&gt;AppModule -->
<g id="edge11" class="edge">
<title>PrivateFilesModule&#45;&gt;AppModule</title>
<path fill="none" stroke="black" d="M697,-84.83C697,-101.2 697,-122.8 697,-122.8 697,-122.8 965.17,-122.8 965.17,-122.8"/>
<polygon fill="black" stroke="black" points="965.17,-126.3 975.17,-122.8 965.17,-119.3 965.17,-126.3"/>
</g>
<!-- PublicFilesModule -->
<g id="node12" class="node">
<title>PublicFilesModule</title>
<polygon fill="#8dd3c7" stroke="black" points="616.06,-84.8 613.06,-88.8 592.06,-88.8 589.06,-84.8 493.94,-84.8 493.94,-48.8 616.06,-48.8 616.06,-84.8"/>
<text text-anchor="middle" x="555" y="-62.6" font-family="Times,serif" font-size="14.00">PublicFilesModule</text>
</g>
<!-- PublicFilesModule&#45;&gt;AppModule -->
<g id="edge12" class="edge">
<title>PublicFilesModule&#45;&gt;AppModule</title>
<path fill="none" stroke="black" d="M555,-85.1C555,-103.07 555,-127.8 555,-127.8 555,-127.8 965.19,-127.8 965.19,-127.8"/>
<polygon fill="black" stroke="black" points="965.19,-131.3 975.19,-127.8 965.19,-124.3 965.19,-131.3"/>
</g>
<!-- SearchModule -->
<g id="node13" class="node">
<title>SearchModule</title>
<polygon fill="#8dd3c7" stroke="black" points="475.64,-84.8 472.64,-88.8 451.64,-88.8 448.64,-84.8 378.36,-84.8 378.36,-48.8 475.64,-48.8 475.64,-84.8"/>
<text text-anchor="middle" x="427" y="-62.6" font-family="Times,serif" font-size="14.00">SearchModule</text>
</g>
<!-- SearchModule&#45;&gt;AppModule -->
<g id="edge13" class="edge">
<title>SearchModule&#45;&gt;AppModule</title>
<path fill="none" stroke="black" d="M427,-84.91C427,-104.14 427,-131.8 427,-131.8 427,-131.8 965.04,-131.8 965.04,-131.8"/>
<polygon fill="black" stroke="black" points="965.04,-135.3 975.04,-131.8 965.04,-128.3 965.04,-135.3"/>
</g>
<!-- SmsModule -->
<g id="node14" class="node">
<title>SmsModule</title>
<polygon fill="#8dd3c7" stroke="black" points="359.68,-84.8 356.68,-88.8 335.68,-88.8 332.68,-84.8 276.32,-84.8 276.32,-48.8 359.68,-48.8 359.68,-84.8"/>
<text text-anchor="middle" x="318" y="-62.6" font-family="Times,serif" font-size="14.00">SmsModule</text>
</g>
<!-- SmsModule&#45;&gt;AppModule -->
<g id="edge14" class="edge">
<title>SmsModule&#45;&gt;AppModule</title>
<path fill="none" stroke="black" d="M318,-84.83C318,-105.57 318,-136.8 318,-136.8 318,-136.8 965.11,-136.8 965.11,-136.8"/>
<polygon fill="black" stroke="black" points="965.11,-140.3 975.11,-136.8 965.11,-133.3 965.11,-140.3"/>
</g>
<!-- SubscribersModule -->
<g id="node15" class="node">
<title>SubscribersModule</title>
<polygon fill="#8dd3c7" stroke="black" points="258.38,-84.8 255.38,-88.8 234.38,-88.8 231.38,-84.8 133.62,-84.8 133.62,-48.8 258.38,-48.8 258.38,-84.8"/>
<text text-anchor="middle" x="196" y="-62.6" font-family="Times,serif" font-size="14.00">SubscribersModule</text>
</g>
<!-- SubscribersModule&#45;&gt;AppModule -->
<g id="edge15" class="edge">
<title>SubscribersModule&#45;&gt;AppModule</title>
<path fill="none" stroke="black" d="M196,-85.09C196,-107.01 196,-140.8 196,-140.8 196,-140.8 965.16,-140.8 965.16,-140.8"/>
<polygon fill="black" stroke="black" points="965.16,-144.3 975.16,-140.8 965.16,-137.3 965.16,-144.3"/>
</g>
<!-- UsersModule -->
<g id="node16" class="node">
<title>UsersModule</title>
<polygon fill="#8dd3c7" stroke="black" points="115.94,-84.8 112.94,-88.8 91.94,-88.8 88.94,-84.8 24.06,-84.8 24.06,-48.8 115.94,-48.8 115.94,-84.8"/>
<text text-anchor="middle" x="70" y="-62.6" font-family="Times,serif" font-size="14.00">UsersModule</text>
</g>
<!-- UsersModule&#45;&gt;AppModule -->
<g id="edge16" class="edge">
<title>UsersModule&#45;&gt;AppModule</title>
<path fill="none" stroke="black" d="M70,-85.12C70,-108.46 70,-145.8 70,-145.8 70,-145.8 965.09,-145.8 965.09,-145.8"/>
<polygon fill="black" stroke="black" points="965.09,-149.3 975.09,-145.8 965.09,-142.3 965.09,-149.3"/>
</g>
</g>
</svg>
