<?xml version="1.0" encoding="UTF-8" standalone="no"?>
<!DOCTYPE svg PUBLIC "-//W3C//DTD SVG 1.1//EN"
 "http://www.w3.org/Graphics/SVG/1.1/DTD/svg11.dtd">
<!-- Generated by graphviz version 5.0.0 (20220707.1540)
 -->
<!-- Title: dependencies Pages: 1 -->
<svg width="512pt" height="174pt"
 viewBox="0.00 0.00 512.00 173.80" xmlns="http://www.w3.org/2000/svg" xmlns:xlink="http://www.w3.org/1999/xlink">
<g id="graph0" class="graph" transform="scale(1 1) rotate(0) translate(4 169.8)">
<title>dependencies</title>
<polygon fill="white" stroke="transparent" points="-4,4 -4,-169.8 508,-169.8 508,4 -4,4"/>
<text text-anchor="middle" x="252" y="-8.2" font-family="sans-serif" font-size="14.00">dependencies</text>
<g id="clust1" class="cluster">
<title>cluster_TwoFactorAuthModule</title>
<polygon fill="none" stroke="black" stroke-dasharray="1,5" points="8,-32.8 8,-157.8 496,-157.8 496,-32.8 8,-32.8"/>
</g>
<g id="clust3" class="cluster">
<title>cluster_TwoFactorAuthModule_imports</title>
<polygon fill="none" stroke="black" points="380,-40.8 380,-92.8 488,-92.8 488,-40.8 380,-40.8"/>
</g>
<g id="clust6" class="cluster">
<title>cluster_TwoFactorAuthModule_providers</title>
<polygon fill="none" stroke="black" points="16,-40.8 16,-92.8 372,-92.8 372,-40.8 16,-40.8"/>
</g>
<!-- UsersModule -->
<g id="node1" class="node">
<title>UsersModule</title>
<polygon fill="#8dd3c7" stroke="black" points="479.94,-84.8 476.94,-88.8 455.94,-88.8 452.94,-84.8 388.06,-84.8 388.06,-48.8 479.94,-48.8 479.94,-84.8"/>
<text text-anchor="middle" x="434" y="-62.6" font-family="Times,serif" font-size="14.00">UsersModule</text>
</g>
<!-- TwoFactorAuthModule -->
<g id="node2" class="node">
<title>TwoFactorAuthModule</title>
<polygon fill="#8dd3c7" stroke="black" points="379.48,-149.8 376.48,-153.8 355.48,-153.8 352.48,-149.8 230.52,-149.8 230.52,-113.8 379.48,-113.8 379.48,-149.8"/>
<text text-anchor="middle" x="305" y="-127.6" font-family="Times,serif" font-size="14.00">TwoFactorAuthModule</text>
</g>
<!-- UsersModule&#45;&gt;TwoFactorAuthModule -->
<g id="edge1" class="edge">
<title>UsersModule&#45;&gt;TwoFactorAuthModule</title>
<path fill="none" stroke="black" d="M388.21,-66.8C378.91,-66.8 371.9,-66.8 371.9,-66.8 371.9,-66.8 371.9,-103.69 371.9,-103.69"/>
<polygon fill="black" stroke="black" points="368.4,-103.69 371.9,-113.69 375.4,-103.69 368.4,-103.69"/>
</g>
<!-- AuthService -->
<g id="node3" class="node">
<title>AuthService</title>
<ellipse fill="#fdb462" stroke="black" cx="305" cy="-66.8" rx="59.11" ry="18"/>
<text text-anchor="middle" x="305" y="-62.6" font-family="Times,serif" font-size="14.00">AuthService</text>
</g>
<!-- AuthService&#45;&gt;TwoFactorAuthModule -->
<g id="edge2" class="edge">
<title>AuthService&#45;&gt;TwoFactorAuthModule</title>
<path fill="none" stroke="black" d="M305,-84.91C305,-84.91 305,-103.79 305,-103.79"/>
<polygon fill="black" stroke="black" points="301.5,-103.79 305,-113.79 308.5,-103.79 301.5,-103.79"/>
</g>
<!-- TwoFactorAuthService -->
<g id="node4" class="node">
<title>TwoFactorAuthService</title>
<ellipse fill="#fdb462" stroke="black" cx="126" cy="-66.8" rx="101.86" ry="18"/>
<text text-anchor="middle" x="126" y="-62.6" font-family="Times,serif" font-size="14.00">TwoFactorAuthService</text>
</g>
<!-- TwoFactorAuthService&#45;&gt;TwoFactorAuthModule -->
<g id="edge3" class="edge">
<title>TwoFactorAuthService&#45;&gt;TwoFactorAuthModule</title>
<path fill="none" stroke="black" d="M227.76,-66.8C234.16,-66.8 238.1,-66.8 238.1,-66.8 238.1,-66.8 238.1,-103.69 238.1,-103.69"/>
<polygon fill="black" stroke="black" points="234.6,-103.69 238.1,-113.69 241.6,-103.69 234.6,-103.69"/>
</g>
</g>
</svg>
