<?xml version="1.0" encoding="UTF-8" standalone="no"?>
<!DOCTYPE svg PUBLIC "-//W3C//DTD SVG 1.1//EN"
 "http://www.w3.org/Graphics/SVG/1.1/DTD/svg11.dtd">
<!-- Generated by graphviz version 5.0.0 (20220707.1540)
 -->
<!-- Title: dependencies Pages: 1 -->
<svg width="3553pt" height="562pt"
 viewBox="0.00 0.00 3553.00 561.80" xmlns="http://www.w3.org/2000/svg" xmlns:xlink="http://www.w3.org/1999/xlink">
<g id="graph0" class="graph" transform="scale(1 1) rotate(0) translate(4 557.8)">
<title>dependencies</title>
<polygon fill="white" stroke="transparent" points="-4,4 -4,-557.8 3549,-557.8 3549,4 -4,4"/>
<text text-anchor="middle" x="1772.5" y="-8.2" font-family="sans-serif" font-size="14.00">dependencies</text>
<g id="clust1" class="cluster">
<title>cluster_AppModule</title>
<polygon fill="none" stroke="black" stroke-dasharray="1,5" points="736,-108.8 736,-469.8 2030,-469.8 2030,-108.8 736,-108.8"/>
</g>
<g id="clust3" class="cluster">
<title>cluster_AppModule_imports</title>
<polygon fill="none" stroke="black" points="744,-116.8 744,-461.8 1930,-461.8 1930,-116.8 744,-116.8"/>
</g>
<g id="clust7" class="cluster">
<title>cluster_AuthModule</title>
<polygon fill="none" stroke="black" stroke-dasharray="1,5" points="2038,-260.8 2038,-404.8 2989,-404.8 2989,-260.8 2038,-260.8"/>
</g>
<g id="clust9" class="cluster">
<title>cluster_AuthModule_imports</title>
<polygon fill="none" stroke="black" points="2817,-344.8 2817,-396.8 2981,-396.8 2981,-344.8 2817,-344.8"/>
</g>
<g id="clust10" class="cluster">
<title>cluster_AuthModule_exports</title>
<polygon fill="none" stroke="black" points="2046,-268.8 2046,-320.8 2152,-320.8 2152,-268.8 2046,-268.8"/>
</g>
<g id="clust12" class="cluster">
<title>cluster_AuthModule_providers</title>
<polygon fill="none" stroke="black" points="2160,-268.8 2160,-320.8 2981,-320.8 2981,-268.8 2160,-268.8"/>
</g>
<g id="clust13" class="cluster">
<title>cluster_CategoriesModule</title>
<polygon fill="none" stroke="black" stroke-dasharray="1,5" points="941,-32.8 941,-100.8 1135,-100.8 1135,-32.8 941,-32.8"/>
</g>
<g id="clust18" class="cluster">
<title>cluster_CategoriesModule_providers</title>
<polygon fill="none" stroke="black" points="949,-40.8 949,-92.8 1127,-92.8 1127,-40.8 949,-40.8"/>
</g>
<g id="clust19" class="cluster">
<title>cluster_ChatModule</title>
<polygon fill="none" stroke="black" stroke-dasharray="1,5" points="1650,-477.8 1650,-545.8 1910,-545.8 1910,-477.8 1650,-477.8"/>
</g>
<g id="clust22" class="cluster">
<title>cluster_ChatModule_exports</title>
<polygon fill="none" stroke="black" points="1798,-485.8 1798,-537.8 1902,-537.8 1902,-485.8 1798,-485.8"/>
</g>
<g id="clust24" class="cluster">
<title>cluster_ChatModule_providers</title>
<polygon fill="none" stroke="black" points="1658,-485.8 1658,-537.8 1790,-537.8 1790,-485.8 1658,-485.8"/>
</g>
<g id="clust37" class="cluster">
<title>cluster_EmailConfirmationModule</title>
<polygon fill="none" stroke="black" stroke-dasharray="1,5" points="8,-336.8 8,-404.8 464,-404.8 464,-336.8 8,-336.8"/>
</g>
<g id="clust40" class="cluster">
<title>cluster_EmailConfirmationModule_exports</title>
<polygon fill="none" stroke="black" points="270,-344.8 270,-396.8 456,-396.8 456,-344.8 270,-344.8"/>
</g>
<g id="clust42" class="cluster">
<title>cluster_EmailConfirmationModule_providers</title>
<polygon fill="none" stroke="black" points="16,-344.8 16,-396.8 262,-396.8 262,-344.8 16,-344.8"/>
</g>
<g id="clust43" class="cluster">
<title>cluster_EmailModule</title>
<polygon fill="none" stroke="black" stroke-dasharray="1,5" points="2038,-184.8 2038,-252.8 2314,-252.8 2314,-184.8 2038,-184.8"/>
</g>
<g id="clust46" class="cluster">
<title>cluster_EmailModule_exports</title>
<polygon fill="none" stroke="black" points="2196,-192.8 2196,-244.8 2306,-244.8 2306,-192.8 2196,-192.8"/>
</g>
<g id="clust48" class="cluster">
<title>cluster_EmailModule_providers</title>
<polygon fill="none" stroke="black" points="2046,-192.8 2046,-244.8 2188,-244.8 2188,-192.8 2046,-192.8"/>
</g>
<g id="clust49" class="cluster">
<title>cluster_EmailSchedulingModule</title>
<polygon fill="none" stroke="black" stroke-dasharray="1,5" points="130,-108.8 130,-176.8 376,-176.8 376,-108.8 130,-108.8"/>
</g>
<g id="clust54" class="cluster">
<title>cluster_EmailSchedulingModule_providers</title>
<polygon fill="none" stroke="black" points="138,-116.8 138,-168.8 368,-168.8 368,-116.8 138,-116.8"/>
</g>
<g id="clust61" class="cluster">
<title>cluster_PostsModule</title>
<polygon fill="none" stroke="black" stroke-dasharray="1,5" points="384,-108.8 384,-176.8 728,-176.8 728,-108.8 384,-108.8"/>
</g>
<g id="clust66" class="cluster">
<title>cluster_PostsModule_providers</title>
<polygon fill="none" stroke="black" points="392,-116.8 392,-168.8 720,-168.8 720,-116.8 392,-116.8"/>
</g>
<g id="clust67" class="cluster">
<title>cluster_PrivateFilesModule</title>
<polygon fill="none" stroke="black" stroke-dasharray="1,5" points="2322,-184.8 2322,-252.8 2678,-252.8 2678,-184.8 2322,-184.8"/>
</g>
<g id="clust70" class="cluster">
<title>cluster_PrivateFilesModule_exports</title>
<polygon fill="none" stroke="black" points="2526,-192.8 2526,-244.8 2670,-244.8 2670,-192.8 2526,-192.8"/>
</g>
<g id="clust72" class="cluster">
<title>cluster_PrivateFilesModule_providers</title>
<polygon fill="none" stroke="black" points="2330,-192.8 2330,-244.8 2518,-244.8 2518,-192.8 2330,-192.8"/>
</g>
<g id="clust73" class="cluster">
<title>cluster_PublicFilesModule</title>
<polygon fill="none" stroke="black" stroke-dasharray="1,5" points="2686,-184.8 2686,-252.8 3032,-252.8 3032,-184.8 2686,-184.8"/>
</g>
<g id="clust76" class="cluster">
<title>cluster_PublicFilesModule_exports</title>
<polygon fill="none" stroke="black" points="2884,-192.8 2884,-244.8 3024,-244.8 3024,-192.8 2884,-192.8"/>
</g>
<g id="clust78" class="cluster">
<title>cluster_PublicFilesModule_providers</title>
<polygon fill="none" stroke="black" points="2694,-192.8 2694,-244.8 2876,-244.8 2876,-192.8 2694,-192.8"/>
</g>
<g id="clust85" class="cluster">
<title>cluster_SmsModule</title>
<polygon fill="none" stroke="black" stroke-dasharray="1,5" points="472,-336.8 472,-404.8 728,-404.8 728,-336.8 472,-336.8"/>
</g>
<g id="clust88" class="cluster">
<title>cluster_SmsModule_exports</title>
<polygon fill="none" stroke="black" points="618,-344.8 618,-396.8 720,-396.8 720,-344.8 618,-344.8"/>
</g>
<g id="clust90" class="cluster">
<title>cluster_SmsModule_providers</title>
<polygon fill="none" stroke="black" points="480,-344.8 480,-396.8 610,-396.8 610,-344.8 480,-344.8"/>
</g>
<g id="clust97" class="cluster">
<title>cluster_TwoFactorAuthModule</title>
<polygon fill="none" stroke="black" stroke-dasharray="1,5" points="3019,-260.8 3019,-328.8 3255,-328.8 3255,-260.8 3019,-260.8"/>
</g>
<g id="clust102" class="cluster">
<title>cluster_TwoFactorAuthModule_providers</title>
<polygon fill="none" stroke="black" points="3027,-268.8 3027,-320.8 3247,-320.8 3247,-268.8 3027,-268.8"/>
</g>
<g id="clust103" class="cluster">
<title>cluster_UsersModule</title>
<polygon fill="none" stroke="black" stroke-dasharray="1,5" points="3263,-260.8 3263,-328.8 3537,-328.8 3537,-260.8 3263,-260.8"/>
</g>
<g id="clust106" class="cluster">
<title>cluster_UsersModule_exports</title>
<polygon fill="none" stroke="black" points="3419,-268.8 3419,-320.8 3529,-320.8 3529,-268.8 3419,-268.8"/>
</g>
<g id="clust108" class="cluster">
<title>cluster_UsersModule_providers</title>
<polygon fill="none" stroke="black" points="3271,-268.8 3271,-320.8 3411,-320.8 3411,-268.8 3271,-268.8"/>
</g>
<!-- AuthModule -->
<g id="node1" class="node">
<title>AuthModule</title>
<polygon fill="#8dd3c7" stroke="black" points="1741.55,-388.8 1738.55,-392.8 1717.55,-392.8 1714.55,-388.8 1654.45,-388.8 1654.45,-352.8 1741.55,-352.8 1741.55,-388.8"/>
<text text-anchor="middle" x="1698" y="-366.6" font-family="Times,serif" font-size="14.00">AuthModule</text>
</g>
<!-- ChatModule -->
<g id="node3" class="node">
<title>ChatModule</title>
<polygon fill="#8dd3c7" stroke="black" points="1829.99,-453.8 1826.99,-457.8 1805.99,-457.8 1802.99,-453.8 1744.01,-453.8 1744.01,-417.8 1829.99,-417.8 1829.99,-453.8"/>
<text text-anchor="middle" x="1787" y="-431.6" font-family="Times,serif" font-size="14.00">ChatModule</text>
</g>
<!-- AuthModule&#45;&gt;ChatModule -->
<g id="edge26" class="edge">
<title>AuthModule&#45;&gt;ChatModule</title>
<path fill="none" stroke="black" d="M1703.77,-388.91C1703.77,-408.14 1703.77,-435.8 1703.77,-435.8 1703.77,-435.8 1733.92,-435.8 1733.92,-435.8"/>
<polygon fill="black" stroke="black" points="1733.92,-439.3 1743.92,-435.8 1733.92,-432.3 1733.92,-439.3"/>
</g>
<!-- AppModule -->
<g id="node17" class="node">
<title>AppModule</title>
<polygon fill="#8dd3c7" stroke="black" points="2021.66,-453.8 2018.66,-457.8 1997.66,-457.8 1994.66,-453.8 1938.34,-453.8 1938.34,-417.8 2021.66,-417.8 2021.66,-453.8"/>
<text text-anchor="middle" x="1980" y="-431.6" font-family="Times,serif" font-size="14.00">AppModule</text>
</g>
<!-- AuthModule&#45;&gt;AppModule -->
<g id="edge1" class="edge">
<title>AuthModule&#45;&gt;AppModule</title>
<path fill="none" stroke="black" d="M1741.72,-384.8C1812.45,-384.8 1944.14,-384.8 1944.14,-384.8 1944.14,-384.8 1944.14,-407.68 1944.14,-407.68"/>
<polygon fill="black" stroke="black" points="1940.64,-407.68 1944.14,-417.68 1947.64,-407.68 1940.64,-407.68"/>
</g>
<!-- AuthService  -->
<g id="node19" class="node">
<title>AuthService </title>
<polygon fill="#fb8072" stroke="black" points="2143.98,-312.8 2054.02,-312.8 2054.02,-276.8 2143.98,-276.8 2143.98,-312.8"/>
<text text-anchor="middle" x="2099" y="-290.6" font-family="Times,serif" font-size="14.00">AuthService </text>
</g>
<!-- AuthModule&#45;&gt;AuthService  -->
<g id="edge19" class="edge">
<title>AuthModule&#45;&gt;AuthService </title>
<path fill="none" stroke="black" stroke-dasharray="5,2" d="M1684.45,-352.79C1684.45,-330.31 1684.45,-294.8 1684.45,-294.8 1684.45,-294.8 2044.24,-294.8 2044.24,-294.8"/>
<polygon fill="black" stroke="black" points="2044.24,-298.3 2054.24,-294.8 2044.24,-291.3 2044.24,-298.3"/>
</g>
<!-- CategoriesModule -->
<g id="node2" class="node">
<title>CategoriesModule</title>
<polygon fill="#8dd3c7" stroke="black" points="1097.92,-160.8 1094.92,-164.8 1073.92,-164.8 1070.92,-160.8 978.08,-160.8 978.08,-124.8 1097.92,-124.8 1097.92,-160.8"/>
<text text-anchor="middle" x="1038" y="-138.6" font-family="Times,serif" font-size="14.00">CategoriesModule</text>
</g>
<!-- CategoriesModule&#45;&gt;AppModule -->
<g id="edge2" class="edge">
<title>CategoriesModule&#45;&gt;AppModule</title>
<path fill="none" stroke="black" d="M1053.68,-160.86C1053.68,-172.24 1053.68,-184.8 1053.68,-184.8 1053.68,-184.8 1985.98,-184.8 1985.98,-184.8 1985.98,-184.8 1985.98,-407.75 1985.98,-407.75"/>
<polygon fill="black" stroke="black" points="1982.48,-407.75 1985.98,-417.75 1989.48,-407.75 1982.48,-407.75"/>
</g>
<!-- ChatModule&#45;&gt;AppModule -->
<g id="edge3" class="edge">
<title>ChatModule&#45;&gt;AppModule</title>
<path fill="none" stroke="black" d="M1830.31,-444.8C1830.31,-444.8 1928.16,-444.8 1928.16,-444.8"/>
<polygon fill="black" stroke="black" points="1928.16,-448.3 1938.16,-444.8 1928.16,-441.3 1928.16,-448.3"/>
</g>
<!-- ChatService  -->
<g id="node26" class="node">
<title>ChatService </title>
<polygon fill="#fb8072" stroke="black" points="1893.92,-529.8 1806.08,-529.8 1806.08,-493.8 1893.92,-493.8 1893.92,-529.8"/>
<text text-anchor="middle" x="1850" y="-507.6" font-family="Times,serif" font-size="14.00">ChatService </text>
</g>
<!-- ChatModule&#45;&gt;ChatService  -->
<g id="edge27" class="edge">
<title>ChatModule&#45;&gt;ChatService </title>
<path fill="none" stroke="black" stroke-dasharray="5,2" d="M1818.02,-453.81C1818.02,-453.81 1818.02,-483.65 1818.02,-483.65"/>
<polygon fill="black" stroke="black" points="1814.52,-483.65 1818.02,-493.65 1821.52,-483.65 1814.52,-483.65"/>
</g>
<!-- CommentsModule -->
<g id="node4" class="node">
<title>CommentsModule</title>
<polygon fill="#8dd3c7" stroke="black" points="1236.22,-160.8 1233.22,-164.8 1212.22,-164.8 1209.22,-160.8 1115.78,-160.8 1115.78,-124.8 1236.22,-124.8 1236.22,-160.8"/>
<text text-anchor="middle" x="1176" y="-138.6" font-family="Times,serif" font-size="14.00">CommentsModule</text>
</g>
<!-- CommentsModule&#45;&gt;AppModule -->
<g id="edge4" class="edge">
<title>CommentsModule&#45;&gt;AppModule</title>
<path fill="none" stroke="black" d="M1176,-160.93C1176,-171.51 1176,-182.8 1176,-182.8 1176,-182.8 1991.95,-182.8 1991.95,-182.8 1991.95,-182.8 1991.95,-407.6 1991.95,-407.6"/>
<polygon fill="black" stroke="black" points="1988.45,-407.6 1991.95,-417.6 1995.45,-407.6 1988.45,-407.6"/>
</g>
<!-- DatabaseModule -->
<g id="node5" class="node">
<title>DatabaseModule</title>
<polygon fill="#8dd3c7" stroke="black" points="1365.36,-160.8 1362.36,-164.8 1341.36,-164.8 1338.36,-160.8 1254.64,-160.8 1254.64,-124.8 1365.36,-124.8 1365.36,-160.8"/>
<text text-anchor="middle" x="1310" y="-138.6" font-family="Times,serif" font-size="14.00">DatabaseModule</text>
</g>
<!-- DatabaseModule&#45;&gt;AppModule -->
<g id="edge5" class="edge">
<title>DatabaseModule&#45;&gt;AppModule</title>
<path fill="none" stroke="black" d="M1312.82,-160.87C1312.82,-170.26 1312.82,-179.8 1312.82,-179.8 1312.82,-179.8 1997.93,-179.8 1997.93,-179.8 1997.93,-179.8 1997.93,-407.8 1997.93,-407.8"/>
<polygon fill="black" stroke="black" points="1994.43,-407.8 1997.93,-417.8 2001.43,-407.8 1994.43,-407.8"/>
</g>
<!-- EmailConfirmationModule -->
<g id="node6" class="node">
<title>EmailConfirmationModule</title>
<polygon fill="#8dd3c7" stroke="black" points="1260.42,-312.8 1257.42,-316.8 1236.42,-316.8 1233.42,-312.8 1091.58,-312.8 1091.58,-276.8 1260.42,-276.8 1260.42,-312.8"/>
<text text-anchor="middle" x="1176" y="-290.6" font-family="Times,serif" font-size="14.00">EmailConfirmationModule</text>
</g>
<!-- EmailConfirmationModule&#45;&gt;AuthModule -->
<g id="edge17" class="edge">
<title>EmailConfirmationModule&#45;&gt;AuthModule</title>
<path fill="none" stroke="black" d="M1204.07,-313C1204.07,-337.16 1204.07,-376.8 1204.07,-376.8 1204.07,-376.8 1644.17,-376.8 1644.17,-376.8"/>
<polygon fill="black" stroke="black" points="1644.17,-380.3 1654.17,-376.8 1644.17,-373.3 1644.17,-380.3"/>
</g>
<!-- EmailConfirmationModule&#45;&gt;AppModule -->
<g id="edge6" class="edge">
<title>EmailConfirmationModule&#45;&gt;AppModule</title>
<path fill="none" stroke="black" d="M1147.93,-312.95C1147.93,-326.54 1147.93,-342.8 1147.93,-342.8 1147.93,-342.8 1950.12,-342.8 1950.12,-342.8 1950.12,-342.8 1950.12,-407.43 1950.12,-407.43"/>
<polygon fill="black" stroke="black" points="1946.62,-407.43 1950.12,-417.43 1953.62,-407.43 1946.62,-407.43"/>
</g>
<!-- EmailConfirmationService  -->
<g id="node28" class="node">
<title>EmailConfirmationService </title>
<polygon fill="#fb8072" stroke="black" points="448.35,-388.8 277.65,-388.8 277.65,-352.8 448.35,-352.8 448.35,-388.8"/>
<text text-anchor="middle" x="363" y="-366.6" font-family="Times,serif" font-size="14.00">EmailConfirmationService </text>
</g>
<!-- EmailConfirmationModule&#45;&gt;EmailConfirmationService  -->
<g id="edge31" class="edge">
<title>EmailConfirmationModule&#45;&gt;EmailConfirmationService </title>
<path fill="none" stroke="black" stroke-dasharray="5,2" d="M1091.55,-303.8C895.07,-303.8 423.89,-303.8 423.89,-303.8 423.89,-303.8 423.89,-342.49 423.89,-342.49"/>
<polygon fill="black" stroke="black" points="420.39,-342.49 423.89,-352.49 427.39,-342.49 420.39,-342.49"/>
</g>
<!-- EmailModule -->
<g id="node7" class="node">
<title>EmailModule</title>
<polygon fill="#8dd3c7" stroke="black" points="960.49,-160.8 957.49,-164.8 936.49,-164.8 933.49,-160.8 867.51,-160.8 867.51,-124.8 960.49,-124.8 960.49,-160.8"/>
<text text-anchor="middle" x="914" y="-138.6" font-family="Times,serif" font-size="14.00">EmailModule</text>
</g>
<!-- EmailModule&#45;&gt;EmailConfirmationModule -->
<g id="edge29" class="edge">
<title>EmailModule&#45;&gt;EmailConfirmationModule</title>
<path fill="none" stroke="black" d="M917.21,-160.91C917.21,-199.39 917.21,-285.8 917.21,-285.8 917.21,-285.8 1081.62,-285.8 1081.62,-285.8"/>
<polygon fill="black" stroke="black" points="1081.62,-289.3 1091.62,-285.8 1081.62,-282.3 1081.62,-289.3"/>
</g>
<!-- EmailSchedulingModule -->
<g id="node8" class="node">
<title>EmailSchedulingModule</title>
<polygon fill="#8dd3c7" stroke="black" points="907.98,-236.8 904.98,-240.8 883.98,-240.8 880.98,-236.8 752.02,-236.8 752.02,-200.8 907.98,-200.8 907.98,-236.8"/>
<text text-anchor="middle" x="830" y="-214.6" font-family="Times,serif" font-size="14.00">EmailSchedulingModule</text>
</g>
<!-- EmailModule&#45;&gt;EmailSchedulingModule -->
<g id="edge35" class="edge">
<title>EmailModule&#45;&gt;EmailSchedulingModule</title>
<path fill="none" stroke="black" d="M887.75,-160.81C887.75,-160.81 887.75,-190.65 887.75,-190.65"/>
<polygon fill="black" stroke="black" points="884.25,-190.65 887.75,-200.65 891.25,-190.65 884.25,-190.65"/>
</g>
<!-- UsersModule -->
<g id="node16" class="node">
<title>UsersModule</title>
<polygon fill="#8dd3c7" stroke="black" points="1841.94,-236.8 1838.94,-240.8 1817.94,-240.8 1814.94,-236.8 1750.06,-236.8 1750.06,-200.8 1841.94,-200.8 1841.94,-236.8"/>
<text text-anchor="middle" x="1796" y="-214.6" font-family="Times,serif" font-size="14.00">UsersModule</text>
</g>
<!-- EmailModule&#45;&gt;UsersModule -->
<g id="edge50" class="edge">
<title>EmailModule&#45;&gt;UsersModule</title>
<path fill="none" stroke="black" d="M947.72,-161.05C947.72,-174.98 947.72,-191.8 947.72,-191.8 947.72,-191.8 1755.61,-191.8 1755.61,-191.8 1755.61,-191.8 1755.61,-192.68 1755.61,-192.68"/>
<polygon fill="black" stroke="black" points="1752.11,-190.64 1755.61,-200.64 1759.11,-190.64 1752.11,-190.64"/>
</g>
<!-- EmailModule&#45;&gt;AppModule -->
<g id="edge7" class="edge">
<title>EmailModule&#45;&gt;AppModule</title>
<path fill="none" stroke="black" d="M951.98,-160.95C951.98,-173.07 951.98,-186.8 951.98,-186.8 951.98,-186.8 1980,-186.8 1980,-186.8 1980,-186.8 1980,-407.49 1980,-407.49"/>
<polygon fill="black" stroke="black" points="1976.5,-407.49 1980,-417.49 1983.5,-407.49 1976.5,-407.49"/>
</g>
<!-- EmailService  -->
<g id="node30" class="node">
<title>EmailService </title>
<polygon fill="#fb8072" stroke="black" points="2298.41,-236.8 2203.59,-236.8 2203.59,-200.8 2298.41,-200.8 2298.41,-236.8"/>
<text text-anchor="middle" x="2251" y="-214.6" font-family="Times,serif" font-size="14.00">EmailService </text>
</g>
<!-- EmailModule&#45;&gt;EmailService  -->
<g id="edge33" class="edge">
<title>EmailModule&#45;&gt;EmailService </title>
<path fill="none" stroke="black" stroke-dasharray="5,2" d="M956.24,-160.86C956.24,-165.29 956.24,-168.8 956.24,-168.8 956.24,-168.8 2251,-168.8 2251,-168.8 2251,-168.8 2251,-190.75 2251,-190.75"/>
<polygon fill="black" stroke="black" points="2247.5,-190.75 2251,-200.75 2254.5,-190.75 2247.5,-190.75"/>
</g>
<!-- EmailSchedulingModule&#45;&gt;AppModule -->
<g id="edge8" class="edge">
<title>EmailSchedulingModule&#45;&gt;AppModule</title>
<path fill="none" stroke="black" d="M830,-236.85C830,-251.17 830,-268.8 830,-268.8 830,-268.8 1962.07,-268.8 1962.07,-268.8 1962.07,-268.8 1962.07,-407.61 1962.07,-407.61"/>
<polygon fill="black" stroke="black" points="1958.57,-407.61 1962.07,-417.61 1965.57,-407.61 1958.57,-407.61"/>
</g>
<!-- OptimizeModule -->
<g id="node9" class="node">
<title>OptimizeModule</title>
<polygon fill="#8dd3c7" stroke="black" points="1494.65,-160.8 1491.65,-164.8 1470.65,-164.8 1467.65,-160.8 1383.35,-160.8 1383.35,-124.8 1494.65,-124.8 1494.65,-160.8"/>
<text text-anchor="middle" x="1439" y="-138.6" font-family="Times,serif" font-size="14.00">OptimizeModule</text>
</g>
<!-- OptimizeModule&#45;&gt;AppModule -->
<g id="edge9" class="edge">
<title>OptimizeModule&#45;&gt;AppModule</title>
<path fill="none" stroke="black" d="M1439,-161.12C1439,-169.59 1439,-177.8 1439,-177.8 1439,-177.8 2003.9,-177.8 2003.9,-177.8 2003.9,-177.8 2003.9,-407.66 2003.9,-407.66"/>
<polygon fill="black" stroke="black" points="2000.4,-407.66 2003.9,-417.66 2007.4,-407.66 2000.4,-407.66"/>
</g>
<!-- PostsModule -->
<g id="node10" class="node">
<title>PostsModule</title>
<polygon fill="#8dd3c7" stroke="black" points="1015.62,-236.8 1012.62,-240.8 991.62,-240.8 988.62,-236.8 926.38,-236.8 926.38,-200.8 1015.62,-200.8 1015.62,-236.8"/>
<text text-anchor="middle" x="971" y="-214.6" font-family="Times,serif" font-size="14.00">PostsModule</text>
</g>
<!-- PostsModule&#45;&gt;AppModule -->
<g id="edge10" class="edge">
<title>PostsModule&#45;&gt;AppModule</title>
<path fill="none" stroke="black" d="M971,-236.86C971,-248.24 971,-260.8 971,-260.8 971,-260.8 1968.05,-260.8 1968.05,-260.8 1968.05,-260.8 1968.05,-407.73 1968.05,-407.73"/>
<polygon fill="black" stroke="black" points="1964.55,-407.73 1968.05,-417.73 1971.55,-407.73 1964.55,-407.73"/>
</g>
<!-- PrivateFilesModule -->
<g id="node11" class="node">
<title>PrivateFilesModule</title>
<polygon fill="#8dd3c7" stroke="black" points="1782.44,-160.8 1779.44,-164.8 1758.44,-164.8 1755.44,-160.8 1655.56,-160.8 1655.56,-124.8 1782.44,-124.8 1782.44,-160.8"/>
<text text-anchor="middle" x="1719" y="-138.6" font-family="Times,serif" font-size="14.00">PrivateFilesModule</text>
</g>
<!-- PrivateFilesModule&#45;&gt;UsersModule -->
<g id="edge51" class="edge">
<title>PrivateFilesModule&#45;&gt;UsersModule</title>
<path fill="none" stroke="black" d="M1760.93,-160.81C1760.93,-160.81 1760.93,-190.65 1760.93,-190.65"/>
<polygon fill="black" stroke="black" points="1757.43,-190.65 1760.93,-200.65 1764.43,-190.65 1757.43,-190.65"/>
</g>
<!-- PrivateFilesModule&#45;&gt;AppModule -->
<g id="edge11" class="edge">
<title>PrivateFilesModule&#45;&gt;AppModule</title>
<path fill="none" stroke="black" d="M1771.57,-160.94C1771.57,-167.26 1771.57,-172.8 1771.57,-172.8 1771.57,-172.8 2015.86,-172.8 2015.86,-172.8 2015.86,-172.8 2015.86,-407.72 2015.86,-407.72"/>
<polygon fill="black" stroke="black" points="2012.36,-407.72 2015.86,-417.72 2019.36,-407.72 2012.36,-407.72"/>
</g>
<!-- PrivateFilesService  -->
<g id="node35" class="node">
<title>PrivateFilesService </title>
<polygon fill="#fb8072" stroke="black" points="2662.36,-236.8 2533.64,-236.8 2533.64,-200.8 2662.36,-200.8 2662.36,-236.8"/>
<text text-anchor="middle" x="2598" y="-214.6" font-family="Times,serif" font-size="14.00">PrivateFilesService </text>
</g>
<!-- PrivateFilesModule&#45;&gt;PrivateFilesService  -->
<g id="edge40" class="edge">
<title>PrivateFilesModule&#45;&gt;PrivateFilesService </title>
<path fill="none" stroke="black" stroke-dasharray="5,2" d="M1776.89,-160.88C1776.89,-162.65 1776.89,-163.8 1776.89,-163.8 1776.89,-163.8 2598,-163.8 2598,-163.8 2598,-163.8 2598,-190.79 2598,-190.79"/>
<polygon fill="black" stroke="black" points="2594.5,-190.79 2598,-200.79 2601.5,-190.79 2594.5,-190.79"/>
</g>
<!-- PublicFilesModule -->
<g id="node12" class="node">
<title>PublicFilesModule</title>
<polygon fill="#8dd3c7" stroke="black" points="1922.06,-160.8 1919.06,-164.8 1898.06,-164.8 1895.06,-160.8 1799.94,-160.8 1799.94,-124.8 1922.06,-124.8 1922.06,-160.8"/>
<text text-anchor="middle" x="1861" y="-138.6" font-family="Times,serif" font-size="14.00">PublicFilesModule</text>
</g>
<!-- PublicFilesModule&#45;&gt;UsersModule -->
<g id="edge52" class="edge">
<title>PublicFilesModule&#45;&gt;UsersModule</title>
<path fill="none" stroke="black" d="M1820.72,-160.81C1820.72,-160.81 1820.72,-190.65 1820.72,-190.65"/>
<polygon fill="black" stroke="black" points="1817.22,-190.65 1820.72,-200.65 1824.22,-190.65 1817.22,-190.65"/>
</g>
<!-- PublicFilesModule&#45;&gt;AppModule -->
<g id="edge12" class="edge">
<title>PublicFilesModule&#45;&gt;AppModule</title>
<path fill="none" stroke="black" d="M1908.12,-161C1908.12,-223.68 1908.12,-426.8 1908.12,-426.8 1908.12,-426.8 1928.19,-426.8 1928.19,-426.8"/>
<polygon fill="black" stroke="black" points="1928.19,-430.3 1938.19,-426.8 1928.19,-423.3 1928.19,-430.3"/>
</g>
<!-- PublicFilesService  -->
<g id="node37" class="node">
<title>PublicFilesService </title>
<polygon fill="#fb8072" stroke="black" points="3016.49,-236.8 2891.51,-236.8 2891.51,-200.8 3016.49,-200.8 3016.49,-236.8"/>
<text text-anchor="middle" x="2954" y="-214.6" font-family="Times,serif" font-size="14.00">PublicFilesService </text>
</g>
<!-- PublicFilesModule&#45;&gt;PublicFilesService  -->
<g id="edge42" class="edge">
<title>PublicFilesModule&#45;&gt;PublicFilesService </title>
<path fill="none" stroke="black" stroke-dasharray="5,2" d="M1922.11,-136.8C2152.29,-136.8 2954,-136.8 2954,-136.8 2954,-136.8 2954,-190.6 2954,-190.6"/>
<polygon fill="black" stroke="black" points="2950.5,-190.6 2954,-200.6 2957.5,-190.6 2950.5,-190.6"/>
</g>
<!-- SearchModule -->
<g id="node13" class="node">
<title>SearchModule</title>
<polygon fill="#8dd3c7" stroke="black" points="849.64,-160.8 846.64,-164.8 825.64,-164.8 822.64,-160.8 752.36,-160.8 752.36,-124.8 849.64,-124.8 849.64,-160.8"/>
<text text-anchor="middle" x="801" y="-138.6" font-family="Times,serif" font-size="14.00">SearchModule</text>
</g>
<!-- SearchModule&#45;&gt;PostsModule -->
<g id="edge37" class="edge">
<title>SearchModule&#45;&gt;PostsModule</title>
<path fill="none" stroke="black" d="M784.73,-160.92C784.73,-175.58 784.73,-193.8 784.73,-193.8 784.73,-193.8 939.21,-193.8 939.21,-193.8 939.21,-193.8 939.21,-194.48 939.21,-194.48"/>
<polygon fill="black" stroke="black" points="935.71,-190.63 939.21,-200.63 942.71,-190.63 935.71,-190.63"/>
</g>
<!-- SearchModule&#45;&gt;AppModule -->
<g id="edge13" class="edge">
<title>SearchModule&#45;&gt;AppModule</title>
<path fill="none" stroke="black" d="M817.27,-160.84C817.27,-174.09 817.27,-189.8 817.27,-189.8 817.27,-189.8 1974.02,-189.8 1974.02,-189.8 1974.02,-189.8 1974.02,-407.71 1974.02,-407.71"/>
<polygon fill="black" stroke="black" points="1970.52,-407.71 1974.02,-417.71 1977.52,-407.71 1970.52,-407.71"/>
</g>
<!-- SmsModule -->
<g id="node14" class="node">
<title>SmsModule</title>
<polygon fill="#8dd3c7" stroke="black" points="1641.68,-312.8 1638.68,-316.8 1617.68,-316.8 1614.68,-312.8 1558.32,-312.8 1558.32,-276.8 1641.68,-276.8 1641.68,-312.8"/>
<text text-anchor="middle" x="1600" y="-290.6" font-family="Times,serif" font-size="14.00">SmsModule</text>
</g>
<!-- SmsModule&#45;&gt;AppModule -->
<g id="edge14" class="edge">
<title>SmsModule&#45;&gt;AppModule</title>
<path fill="none" stroke="black" d="M1641.9,-303.8C1736.03,-303.8 1956.1,-303.8 1956.1,-303.8 1956.1,-303.8 1956.1,-407.72 1956.1,-407.72"/>
<polygon fill="black" stroke="black" points="1952.6,-407.72 1956.1,-417.72 1959.6,-407.72 1952.6,-407.72"/>
</g>
<!-- SmsService  -->
<g id="node39" class="node">
<title>SmsService </title>
<polygon fill="#fb8072" stroke="black" points="711.6,-388.8 626.4,-388.8 626.4,-352.8 711.6,-352.8 711.6,-388.8"/>
<text text-anchor="middle" x="669" y="-366.6" font-family="Times,serif" font-size="14.00">SmsService </text>
</g>
<!-- SmsModule&#45;&gt;SmsService  -->
<g id="edge45" class="edge">
<title>SmsModule&#45;&gt;SmsService </title>
<path fill="none" stroke="black" stroke-dasharray="5,2" d="M1613.95,-312.83C1613.95,-333.57 1613.95,-364.8 1613.95,-364.8 1613.95,-364.8 721.75,-364.8 721.75,-364.8"/>
<polygon fill="black" stroke="black" points="721.75,-361.3 711.75,-364.8 721.75,-368.3 721.75,-361.3"/>
</g>
<!-- SubscribersModule -->
<g id="node15" class="node">
<title>SubscribersModule</title>
<polygon fill="#8dd3c7" stroke="black" points="1637.38,-160.8 1634.38,-164.8 1613.38,-164.8 1610.38,-160.8 1512.62,-160.8 1512.62,-124.8 1637.38,-124.8 1637.38,-160.8"/>
<text text-anchor="middle" x="1575" y="-138.6" font-family="Times,serif" font-size="14.00">SubscribersModule</text>
</g>
<!-- SubscribersModule&#45;&gt;AppModule -->
<g id="edge15" class="edge">
<title>SubscribersModule&#45;&gt;AppModule</title>
<path fill="none" stroke="black" d="M1597.8,-160.84C1597.8,-168.55 1597.8,-175.8 1597.8,-175.8 1597.8,-175.8 2009.88,-175.8 2009.88,-175.8 2009.88,-175.8 2009.88,-407.52 2009.88,-407.52"/>
<polygon fill="black" stroke="black" points="2006.38,-407.52 2009.88,-417.52 2013.38,-407.52 2006.38,-407.52"/>
</g>
<!-- UsersModule&#45;&gt;EmailConfirmationModule -->
<g id="edge30" class="edge">
<title>UsersModule&#45;&gt;EmailConfirmationModule</title>
<path fill="none" stroke="black" d="M1750,-218.8C1617.65,-218.8 1245.34,-218.8 1245.34,-218.8 1245.34,-218.8 1245.34,-266.79 1245.34,-266.79"/>
<polygon fill="black" stroke="black" points="1241.84,-266.79 1245.34,-276.79 1248.84,-266.79 1241.84,-266.79"/>
</g>
<!-- UsersModule&#45;&gt;SmsModule -->
<g id="edge44" class="edge">
<title>UsersModule&#45;&gt;SmsModule</title>
<path fill="none" stroke="black" d="M1776.85,-237.11C1776.85,-256.95 1776.85,-285.8 1776.85,-285.8 1776.85,-285.8 1651.91,-285.8 1651.91,-285.8"/>
<polygon fill="black" stroke="black" points="1651.91,-282.3 1641.91,-285.8 1651.91,-289.3 1651.91,-282.3"/>
</g>
<!-- UsersModule&#45;&gt;AppModule -->
<g id="edge16" class="edge">
<title>UsersModule&#45;&gt;AppModule</title>
<path fill="none" stroke="black" d="M1838.79,-236.93C1838.79,-289.08 1838.79,-435.8 1838.79,-435.8 1838.79,-435.8 1928.01,-435.8 1928.01,-435.8"/>
<polygon fill="black" stroke="black" points="1928.01,-439.3 1938.01,-435.8 1928.01,-432.3 1928.01,-439.3"/>
</g>
<!-- TwoFactorAuthModule -->
<g id="node18" class="node">
<title>TwoFactorAuthModule</title>
<polygon fill="#8dd3c7" stroke="black" points="2973.48,-388.8 2970.48,-392.8 2949.48,-392.8 2946.48,-388.8 2824.52,-388.8 2824.52,-352.8 2973.48,-352.8 2973.48,-388.8"/>
<text text-anchor="middle" x="2899" y="-366.6" font-family="Times,serif" font-size="14.00">TwoFactorAuthModule</text>
</g>
<!-- UsersModule&#45;&gt;TwoFactorAuthModule -->
<g id="edge47" class="edge">
<title>UsersModule&#45;&gt;TwoFactorAuthModule</title>
<path fill="none" stroke="black" d="M1803.43,-236.97C1803.43,-274.65 1803.43,-357.8 1803.43,-357.8 1803.43,-357.8 2814.13,-357.8 2814.13,-357.8"/>
<polygon fill="black" stroke="black" points="2814.13,-361.3 2824.13,-357.8 2814.13,-354.3 2814.13,-361.3"/>
</g>
<!-- UsersService  -->
<g id="node42" class="node">
<title>UsersService </title>
<polygon fill="#fb8072" stroke="black" points="3520.86,-312.8 3427.14,-312.8 3427.14,-276.8 3520.86,-276.8 3520.86,-312.8"/>
<text text-anchor="middle" x="3474" y="-290.6" font-family="Times,serif" font-size="14.00">UsersService </text>
</g>
<!-- UsersModule&#45;&gt;UsersService  -->
<g id="edge53" class="edge">
<title>UsersModule&#45;&gt;UsersService </title>
<path fill="none" stroke="black" stroke-dasharray="5,2" d="M1832.93,-236.86C1832.93,-241.29 1832.93,-244.8 1832.93,-244.8 1832.93,-244.8 3474,-244.8 3474,-244.8 3474,-244.8 3474,-266.75 3474,-266.75"/>
<polygon fill="black" stroke="black" points="3470.5,-266.75 3474,-276.75 3477.5,-266.75 3470.5,-266.75"/>
</g>
<!-- TwoFactorAuthModule&#45;&gt;AuthModule -->
<g id="edge18" class="edge">
<title>TwoFactorAuthModule&#45;&gt;AuthModule</title>
<path fill="none" stroke="black" d="M2824.33,-379.8C2824.33,-379.8 1751.79,-379.8 1751.79,-379.8"/>
<polygon fill="black" stroke="black" points="1751.79,-376.3 1741.79,-379.8 1751.79,-383.3 1751.79,-376.3"/>
</g>
<!-- AuthService -->
<g id="node20" class="node">
<title>AuthService</title>
<ellipse fill="#fdb462" stroke="black" cx="2914" cy="-294.8" rx="59.11" ry="18"/>
<text text-anchor="middle" x="2914" y="-290.6" font-family="Times,serif" font-size="14.00">AuthService</text>
</g>
<!-- AuthService&#45;&gt;AuthModule -->
<g id="edge20" class="edge">
<title>AuthService&#45;&gt;AuthModule</title>
<path fill="none" stroke="black" d="M2894.23,-312.05C2894.23,-317.82 2894.23,-322.8 2894.23,-322.8 2894.23,-322.8 1713.11,-322.8 1713.11,-322.8 1713.11,-322.8 1713.11,-342.65 1713.11,-342.65"/>
<polygon fill="black" stroke="black" points="1709.61,-342.65 1713.11,-352.65 1716.61,-342.65 1709.61,-342.65"/>
</g>
<!-- AuthService&#45;&gt;TwoFactorAuthModule -->
<g id="edge48" class="edge">
<title>AuthService&#45;&gt;TwoFactorAuthModule</title>
<path fill="none" stroke="black" d="M2933.77,-312.05C2933.77,-312.05 2933.77,-342.56 2933.77,-342.56"/>
<polygon fill="black" stroke="black" points="2930.27,-342.56 2933.77,-352.56 2937.27,-342.56 2930.27,-342.56"/>
</g>
<!-- JwtRefreshStrategy -->
<g id="node21" class="node">
<title>JwtRefreshStrategy</title>
<ellipse fill="#fdb462" stroke="black" cx="2386" cy="-294.8" rx="86.83" ry="18"/>
<text text-anchor="middle" x="2386" y="-290.6" font-family="Times,serif" font-size="14.00">JwtRefreshStrategy</text>
</g>
<!-- JwtRefreshStrategy&#45;&gt;AuthModule -->
<g id="edge21" class="edge">
<title>JwtRefreshStrategy&#45;&gt;AuthModule</title>
<path fill="none" stroke="black" d="M2386,-312.97C2386,-334.3 2386,-366.8 2386,-366.8 2386,-366.8 1751.56,-366.8 1751.56,-366.8"/>
<polygon fill="black" stroke="black" points="1751.56,-363.3 1741.56,-366.8 1751.56,-370.3 1751.56,-363.3"/>
</g>
<!-- JwtStrategy -->
<g id="node22" class="node">
<title>JwtStrategy</title>
<ellipse fill="#fdb462" stroke="black" cx="2225" cy="-294.8" rx="56.77" ry="18"/>
<text text-anchor="middle" x="2225" y="-290.6" font-family="Times,serif" font-size="14.00">JwtStrategy</text>
</g>
<!-- JwtStrategy&#45;&gt;AuthModule -->
<g id="edge22" class="edge">
<title>JwtStrategy&#45;&gt;AuthModule</title>
<path fill="none" stroke="black" d="M2225,-313.11C2225,-332.95 2225,-361.8 2225,-361.8 2225,-361.8 1751.57,-361.8 1751.57,-361.8"/>
<polygon fill="black" stroke="black" points="1751.58,-358.3 1741.57,-361.8 1751.57,-365.3 1751.58,-358.3"/>
</g>
<!-- JwtTwoFactorStrategy -->
<g id="node23" class="node">
<title>JwtTwoFactorStrategy</title>
<ellipse fill="#fdb462" stroke="black" cx="2738" cy="-294.8" rx="99.01" ry="18"/>
<text text-anchor="middle" x="2738" y="-290.6" font-family="Times,serif" font-size="14.00">JwtTwoFactorStrategy</text>
</g>
<!-- JwtTwoFactorStrategy&#45;&gt;AuthModule -->
<g id="edge23" class="edge">
<title>JwtTwoFactorStrategy&#45;&gt;AuthModule</title>
<path fill="none" stroke="black" d="M2731.75,-312.78C2731.75,-336.64 2731.75,-375.8 2731.75,-375.8 2731.75,-375.8 1751.76,-375.8 1751.76,-375.8"/>
<polygon fill="black" stroke="black" points="1751.76,-372.3 1741.76,-375.8 1751.76,-379.3 1751.76,-372.3"/>
</g>
<!-- LocalStrategy -->
<g id="node24" class="node">
<title>LocalStrategy</title>
<ellipse fill="#fdb462" stroke="black" cx="2556" cy="-294.8" rx="65.4" ry="18"/>
<text text-anchor="middle" x="2556" y="-290.6" font-family="Times,serif" font-size="14.00">LocalStrategy</text>
</g>
<!-- LocalStrategy&#45;&gt;AuthModule -->
<g id="edge24" class="edge">
<title>LocalStrategy&#45;&gt;AuthModule</title>
<path fill="none" stroke="black" d="M2556,-312.81C2556,-335.29 2556,-370.8 2556,-370.8 2556,-370.8 1751.73,-370.8 1751.73,-370.8"/>
<polygon fill="black" stroke="black" points="1751.73,-367.3 1741.73,-370.8 1751.73,-374.3 1751.73,-367.3"/>
</g>
<!-- CategoriesService -->
<g id="node25" class="node">
<title>CategoriesService</title>
<ellipse fill="#fdb462" stroke="black" cx="1038" cy="-66.8" rx="81.08" ry="18"/>
<text text-anchor="middle" x="1038" y="-62.6" font-family="Times,serif" font-size="14.00">CategoriesService</text>
</g>
<!-- CategoriesService&#45;&gt;CategoriesModule -->
<g id="edge25" class="edge">
<title>CategoriesService&#45;&gt;CategoriesModule</title>
<path fill="none" stroke="black" d="M1038,-84.81C1038,-84.81 1038,-114.65 1038,-114.65"/>
<polygon fill="black" stroke="black" points="1034.5,-114.65 1038,-124.65 1041.5,-114.65 1034.5,-114.65"/>
</g>
<!-- ChatService -->
<g id="node27" class="node">
<title>ChatService</title>
<ellipse fill="#fdb462" stroke="black" cx="1724" cy="-511.8" rx="58.46" ry="18"/>
<text text-anchor="middle" x="1724" y="-507.6" font-family="Times,serif" font-size="14.00">ChatService</text>
</g>
<!-- ChatService&#45;&gt;ChatModule -->
<g id="edge28" class="edge">
<title>ChatService&#45;&gt;ChatModule</title>
<path fill="none" stroke="black" d="M1763.12,-498.21C1763.12,-498.21 1763.12,-463.84 1763.12,-463.84"/>
<polygon fill="black" stroke="black" points="1766.62,-463.84 1763.12,-453.84 1759.62,-463.84 1766.62,-463.84"/>
</g>
<!-- EmailConfirmationService -->
<g id="node29" class="node">
<title>EmailConfirmationService</title>
<ellipse fill="#fdb462" stroke="black" cx="139" cy="-370.8" rx="115.18" ry="18"/>
<text text-anchor="middle" x="139" y="-366.6" font-family="Times,serif" font-size="14.00">EmailConfirmationService</text>
</g>
<!-- EmailConfirmationService&#45;&gt;EmailConfirmationModule -->
<g id="edge32" class="edge">
<title>EmailConfirmationService&#45;&gt;EmailConfirmationModule</title>
<path fill="none" stroke="black" d="M200.29,-355.42C200.29,-333.21 200.29,-294.8 200.29,-294.8 200.29,-294.8 1081.54,-294.8 1081.54,-294.8"/>
<polygon fill="black" stroke="black" points="1081.54,-298.3 1091.54,-294.8 1081.54,-291.3 1081.54,-298.3"/>
</g>
<!-- EmailService -->
<g id="node31" class="node">
<title>EmailService</title>
<ellipse fill="#fdb462" stroke="black" cx="2117" cy="-218.8" rx="63.11" ry="18"/>
<text text-anchor="middle" x="2117" y="-214.6" font-family="Times,serif" font-size="14.00">EmailService</text>
</g>
<!-- EmailService&#45;&gt;EmailModule -->
<g id="edge34" class="edge">
<title>EmailService&#45;&gt;EmailModule</title>
<path fill="none" stroke="black" d="M2117,-200.65C2117,-187.06 2117,-170.8 2117,-170.8 2117,-170.8 943.47,-170.8 943.47,-170.8 943.47,-170.8 943.47,-169.82 943.47,-169.82"/>
<polygon fill="black" stroke="black" points="946.97,-171.01 943.47,-161.01 939.97,-171.01 946.97,-171.01"/>
</g>
<!-- EmailSchedulingService -->
<g id="node32" class="node">
<title>EmailSchedulingService</title>
<ellipse fill="#fdb462" stroke="black" cx="253" cy="-142.8" rx="106.51" ry="18"/>
<text text-anchor="middle" x="253" y="-138.6" font-family="Times,serif" font-size="14.00">EmailSchedulingService</text>
</g>
<!-- EmailSchedulingService&#45;&gt;EmailSchedulingModule -->
<g id="edge36" class="edge">
<title>EmailSchedulingService&#45;&gt;EmailSchedulingModule</title>
<path fill="none" stroke="black" d="M318.67,-157.1C318.67,-179.11 318.67,-218.8 318.67,-218.8 318.67,-218.8 741.78,-218.8 741.78,-218.8"/>
<polygon fill="black" stroke="black" points="741.78,-222.3 751.78,-218.8 741.78,-215.3 741.78,-222.3"/>
</g>
<!-- PostsSearchService -->
<g id="node33" class="node">
<title>PostsSearchService</title>
<ellipse fill="#fdb462" stroke="black" cx="625" cy="-142.8" rx="86.83" ry="18"/>
<text text-anchor="middle" x="625" y="-138.6" font-family="Times,serif" font-size="14.00">PostsSearchService</text>
</g>
<!-- PostsSearchService&#45;&gt;PostsModule -->
<g id="edge38" class="edge">
<title>PostsSearchService&#45;&gt;PostsModule</title>
<path fill="none" stroke="black" d="M668.93,-158.42C668.93,-174.37 668.93,-196.8 668.93,-196.8 668.93,-196.8 934.95,-196.8 934.95,-196.8 934.95,-196.8 934.95,-197.18 934.95,-197.18"/>
<polygon fill="black" stroke="black" points="931.45,-190.63 934.95,-200.63 938.45,-190.63 931.45,-190.63"/>
</g>
<!-- PostsService -->
<g id="node34" class="node">
<title>PostsService</title>
<ellipse fill="#fdb462" stroke="black" cx="460" cy="-142.8" rx="60.28" ry="18"/>
<text text-anchor="middle" x="460" y="-138.6" font-family="Times,serif" font-size="14.00">PostsService</text>
</g>
<!-- PostsService&#45;&gt;PostsModule -->
<g id="edge39" class="edge">
<title>PostsService&#45;&gt;PostsModule</title>
<path fill="none" stroke="black" d="M504.38,-155.23C504.38,-171.73 504.38,-198.8 504.38,-198.8 504.38,-198.8 930.69,-198.8 930.69,-198.8 930.69,-198.8 930.69,-198.98 930.69,-198.98"/>
<polygon fill="black" stroke="black" points="927.2,-190.65 930.69,-200.65 934.2,-190.65 927.2,-190.65"/>
</g>
<!-- PrivateFilesService -->
<g id="node36" class="node">
<title>PrivateFilesService</title>
<ellipse fill="#fdb462" stroke="black" cx="2424" cy="-218.8" rx="86.26" ry="18"/>
<text text-anchor="middle" x="2424" y="-214.6" font-family="Times,serif" font-size="14.00">PrivateFilesService</text>
</g>
<!-- PrivateFilesService&#45;&gt;PrivateFilesModule -->
<g id="edge41" class="edge">
<title>PrivateFilesService&#45;&gt;PrivateFilesModule</title>
<path fill="none" stroke="black" d="M2424,-200.56C2424,-185.23 2424,-165.8 2424,-165.8 2424,-165.8 1766.25,-165.8 1766.25,-165.8 1766.25,-165.8 1766.25,-165.31 1766.25,-165.31"/>
<polygon fill="black" stroke="black" points="1769.75,-170.92 1766.25,-160.92 1762.75,-170.92 1769.75,-170.92"/>
</g>
<!-- PublicFilesService -->
<g id="node38" class="node">
<title>PublicFilesService</title>
<ellipse fill="#fdb462" stroke="black" cx="2785" cy="-218.8" rx="83.41" ry="18"/>
<text text-anchor="middle" x="2785" y="-214.6" font-family="Times,serif" font-size="14.00">PublicFilesService</text>
</g>
<!-- PublicFilesService&#45;&gt;PublicFilesModule -->
<g id="edge43" class="edge">
<title>PublicFilesService&#45;&gt;PublicFilesModule</title>
<path fill="none" stroke="black" d="M2785,-200.77C2785,-180.03 2785,-148.8 2785,-148.8 2785,-148.8 1932.34,-148.8 1932.34,-148.8"/>
<polygon fill="black" stroke="black" points="1932.34,-145.3 1922.34,-148.8 1932.34,-152.3 1932.34,-145.3"/>
</g>
<!-- SmsService -->
<g id="node40" class="node">
<title>SmsService</title>
<ellipse fill="#fdb462" stroke="black" cx="545" cy="-370.8" rx="56.77" ry="18"/>
<text text-anchor="middle" x="545" y="-366.6" font-family="Times,serif" font-size="14.00">SmsService</text>
</g>
<!-- SmsService&#45;&gt;SmsModule -->
<g id="edge46" class="edge">
<title>SmsService&#45;&gt;SmsModule</title>
<path fill="none" stroke="black" d="M569.98,-354.46C569.98,-344.16 569.98,-332.8 569.98,-332.8 569.98,-332.8 1586.05,-332.8 1586.05,-332.8 1586.05,-332.8 1586.05,-322.91 1586.05,-322.91"/>
<polygon fill="black" stroke="black" points="1589.55,-322.91 1586.05,-312.91 1582.55,-322.91 1589.55,-322.91"/>
</g>
<!-- TwoFactorAuthService -->
<g id="node41" class="node">
<title>TwoFactorAuthService</title>
<ellipse fill="#fdb462" stroke="black" cx="3137" cy="-294.8" rx="101.86" ry="18"/>
<text text-anchor="middle" x="3137" y="-290.6" font-family="Times,serif" font-size="14.00">TwoFactorAuthService</text>
</g>
<!-- TwoFactorAuthService&#45;&gt;TwoFactorAuthModule -->
<g id="edge49" class="edge">
<title>TwoFactorAuthService&#45;&gt;TwoFactorAuthModule</title>
<path fill="none" stroke="black" d="M3137,-312.81C3137,-335.29 3137,-370.8 3137,-370.8 3137,-370.8 2983.65,-370.8 2983.65,-370.8"/>
<polygon fill="black" stroke="black" points="2983.65,-367.3 2973.65,-370.8 2983.65,-374.3 2983.65,-367.3"/>
</g>
<!-- UsersService -->
<g id="node43" class="node">
<title>UsersService</title>
<ellipse fill="#fdb462" stroke="black" cx="3341" cy="-294.8" rx="61.97" ry="18"/>
<text text-anchor="middle" x="3341" y="-290.6" font-family="Times,serif" font-size="14.00">UsersService</text>
</g>
<!-- UsersService&#45;&gt;UsersModule -->
<g id="edge54" class="edge">
<title>UsersService&#45;&gt;UsersModule</title>
<path fill="none" stroke="black" d="M3341,-276.74C3341,-265.36 3341,-252.8 3341,-252.8 3341,-252.8 1835.86,-252.8 1835.86,-252.8 1835.86,-252.8 1835.86,-246.99 1835.86,-246.99"/>
<polygon fill="black" stroke="black" points="1839.36,-246.99 1835.86,-236.99 1832.36,-246.99 1839.36,-246.99"/>
</g>
</g>
</svg>
